<svg width="66" height="64" viewBox="0 0 66 64" fill="none" xmlns="http://www.w3.org/2000/svg">
<path d="M9.32381 23.3003C9.14905 20.9794 10.985 19 13.3125 19H61.2314C63.7084 19 65.5899 21.2283 65.1749 23.6703L59.5659 56.6703C59.2391 58.5932 57.573 60 55.6225 60H15.7974C13.7048 60 11.9658 58.3871 11.8087 56.3003L9.32381 23.3003Z" fill="#EDF0F7"/>
<path d="M48 31L34.25 47L28 39.7273" stroke="#314ACE" stroke-width="1.5" stroke-linecap="round" stroke-linejoin="round"/>
<path fill-rule="evenodd" clip-rule="evenodd" d="M3.67012 18.5847H5.75886L5.61446 16.977C5.51703 15.889 6.31459 15 7.3875 15H22.0774C23.1503 15 24.1073 15.889 24.2048 16.977L24.3476 18.5847H52.6259C54.2345 18.5847 55.6701 19.9182 55.8163 21.5496L58.9879 57.0336C59.1341 58.6649 57.9369 60 56.33 60H7.37406C5.76552 60 4.32992 58.6649 4.18386 57.0336L1.01208 21.5496C0.866014 19.9182 2.06158 18.5847 3.67012 18.5847Z" stroke="#4D55E5" stroke-width="1.5" stroke-miterlimit="2.6131" stroke-linecap="round" stroke-linejoin="round"/>
<path d="M56.3828 24H61.3097C62.3605 24 63.1131 25.1763 62.9831 26.6157L58.9977 58" stroke="#4D55E5" stroke-width="1.5" stroke-miterlimit="2.6131" stroke-linecap="round" stroke-linejoin="round"/>
</svg>
