<svg width="48" height="48" viewBox="0 0 48 48" fill="none" xmlns="http://www.w3.org/2000/svg">
<path opacity="0.16" d="M32 12.5C32 18.299 27.5228 23 22 23C21.0235 23 20.0797 22.853 19.1875 22.579L16.7632 21.5018C16.6834 21.4663 16.6094 21.4191 16.5436 21.3617L15.125 20.125C13.2005 18.2112 12 15.5028 12 12.5C12 6.70101 16.4772 2 22 2C27.5228 2 32 6.70101 32 12.5Z" fill="#F93749"/>
<path opacity="0.16" d="M46.8933 17.3021C45.4236 23.1968 40.974 27.163 36.9549 26.1609C36.2443 25.9837 35.5947 25.6631 35.0149 25.2227L33.5505 23.7154C33.4838 23.6466 33.4287 23.5674 33.3876 23.4809L32.6805 21.991C31.765 19.6965 31.5778 16.7256 32.3389 13.6733C33.8086 7.77858 38.2581 3.81234 42.2772 4.81441C46.2963 5.81649 48.363 11.4074 46.8933 17.3021Z" fill="#F93749"/>
<path d="M37 46L37 34" stroke="#F93749" stroke-width="1.4" stroke-linecap="round"/>
<path d="M45 15C44.8802 14.4385 44.728 13.8895 44.5446 13.3579C43.1738 9.37681 40.3533 7 37 7" stroke="#F93749" stroke-width="1.4" stroke-linecap="round"/>
<path fill-rule="evenodd" clip-rule="evenodd" d="M30.559 22.0651L29.6094 23.1031L35.889 30.108L35.6108 30.5876C34.9896 31.6585 35.7623 33 37.0004 33C38.2384 33 39.0111 31.6585 38.3899 30.5876L38.1118 30.1081L45.194 22.2078C46.3666 20.9199 47.209 19.369 47.6496 17.6872C48.0902 16.0054 48.1158 14.2425 47.7244 12.5486L47.5975 12.0486C47.4457 11.5063 47.2534 10.976 47.0222 10.4622C46.1561 8.53754 44.7491 6.90335 42.9709 5.75672C41.1926 4.6101 39.1191 4 37.0004 4C35.8052 4 34.6244 4.19413 33.503 4.56918C33.8055 4.9535 34.0837 5.35648 34.3358 5.77596C35.1973 5.52787 36.094 5.4 37.0004 5.4C38.8504 5.4 40.6604 5.93275 42.2122 6.93333C43.7638 7.93383 44.9906 9.35913 45.7455 11.0366C45.9457 11.4816 46.1126 11.9407 46.2449 12.4101L46.3636 12.8779C46.7006 14.3466 46.6772 15.8745 46.2953 17.3324C45.9122 18.795 45.1794 20.1444 44.1588 21.2653L44.1587 21.2653L44.1515 21.2733L37.0693 29.1736L37.0004 29.2505L36.9314 29.1735L30.559 22.0651ZM36.8218 31.29L37.0004 30.9822L37.1789 31.29C37.2587 31.4276 37.1594 31.6 37.0004 31.6C36.8413 31.6 36.742 31.4276 36.8218 31.29Z" fill="#F93749"/>
<path d="M11 46L11 34" stroke="#F93749" stroke-width="1.4" stroke-linecap="round"/>
<path fill-rule="evenodd" clip-rule="evenodd" d="M14.4978 4.56924C13.3763 4.19415 12.1954 4 11.0002 4C8.88145 4 6.80794 4.6101 5.0297 5.75672C3.25147 6.90335 1.84446 8.53754 0.978334 10.4622C0.759149 10.9489 0.574778 11.4504 0.426597 11.9629L0.295964 12.4624C-0.112889 14.1676 -0.0979326 15.9463 0.339536 17.6444C0.777004 19.3425 1.62379 20.9088 2.80656 22.2077L9.8888 30.108L9.61063 30.5876C8.98946 31.6585 9.76216 33 11.0002 33C12.2383 33 13.011 31.6585 12.3898 30.5876L12.1116 30.1081L18.3914 23.103L17.4417 22.065L11.0692 29.1736L11.0003 29.2505L10.9312 29.1735L3.849 21.2732L3.84904 21.2732L3.84171 21.2652C2.81226 20.1346 2.07571 18.7719 1.69527 17.2951C1.31598 15.8228 1.30191 14.281 1.65416 12.8023L1.77635 12.3351C1.90532 11.8919 2.0652 11.4582 2.25485 11.0371L2.25502 11.0367C3.00993 9.3592 4.23672 7.93386 5.78839 6.93333C7.34013 5.93275 9.15017 5.4 11.0002 5.4C11.9066 5.4 12.8035 5.52789 13.665 5.77602C13.9171 5.35654 14.1953 4.95356 14.4978 4.56924ZM10.8217 31.29L11.0002 30.9822L11.1788 31.29C11.2586 31.4276 11.1593 31.6 11.0002 31.6C10.8411 31.6 10.7418 31.4276 10.8217 31.29Z" fill="#F93749"/>
<path d="M24 44L24 32" stroke="#F93749" stroke-width="1.4" stroke-linecap="round"/>
<path d="M32.4259 18.987L32.4222 18.991L24.6962 27.4361L24.3461 27.8189L24.6103 28.2652L24.8905 28.7385C25.2987 29.4281 24.8016 30.3 24.0002 30.3C23.1988 30.3 22.7018 29.4281 23.11 28.7385L23.3902 28.2651L23.6544 27.8188L23.3043 27.4361L15.5782 18.991L15.5782 18.9909L15.5745 18.9869C14.3619 17.682 13.495 16.1099 13.0474 14.4074C12.6004 12.7072 12.5845 10.9268 13.0011 9.2194L13.1393 8.70155C13.291 8.18895 13.4795 7.68728 13.7033 7.20022L13.7034 7.20003C14.5909 5.26752 16.0339 3.624 17.8609 2.46965C19.688 1.31519 21.8202 0.7 24.0002 0.7C26.1803 0.7 28.3125 1.31519 30.1396 2.46965C31.9666 3.62399 33.4095 5.26749 34.297 7.19996C34.5332 7.7144 34.7298 8.2451 34.8853 8.78771L35.0196 9.30619C35.4183 11.002 35.3915 12.7666 34.9413 14.4503C34.4905 16.1366 33.6281 17.6932 32.4259 18.987Z" stroke="#F93749" stroke-width="1.4"/>
<path d="M31 15C31.6532 14.3452 31.9888 13.6739 32 13" stroke="#F93749" stroke-width="1.4" stroke-linecap="round"/>
<path d="M32 10C31.8802 9.57886 31.728 9.16716 31.5446 8.76842C30.1738 5.78261 27.3533 4 24 4" stroke="#F93749" stroke-width="1.4" stroke-linecap="round"/>
</svg>
