<svg width="34" height="36" viewBox="0 0 34 36" fill="none" xmlns="http://www.w3.org/2000/svg">
<path opacity="0.16" d="M26.6578 28.0454C26.5419 27.4268 25.1022 24.6371 24.4249 23.0305C24.1579 22.3969 23.9048 21.7487 23.6108 21.1271C23.0795 20.0036 22.6278 18.6531 22.6278 16.8719V14.6992C22.6278 10.1313 18.9275 6.36488 14.3774 6.29883H14.1036C9.53797 6.3651 5.82525 10.1316 5.82525 14.6992V16.8719C5.82525 19.5715 4.82405 21.3228 3.85573 23.0163L3.85562 23.0165C3.0584 24.4111 2.23405 25.8531 1.8232 28.0454C1.71384 28.6288 1.97029 29.0445 2.13282 29.2404C2.29498 29.4358 2.65536 29.7636 3.24671 29.7636L25.1969 30.1488C26.6222 30.1488 26.9205 29.4463 26.6578 28.0454Z" fill="#F93749"/>
<path fill-rule="evenodd" clip-rule="evenodd" d="M3.66459 21.1138C3.66472 21.1136 3.66485 21.1134 3.66497 21.1132L3.66493 21.1133L3.66459 21.1138ZM30.2386 26.4212C30.7314 26.3288 31.2057 26.6534 31.2979 27.1461C31.5074 28.2639 31.2114 29.4053 30.4853 30.28C29.7601 31.154 28.694 31.6545 27.5585 31.6545H20.3834V32.1953C20.3834 34.2927 18.6761 36 16.5786 36C14.4812 36 12.7739 34.2927 12.7739 32.1953V31.6545H5.57086C4.43533 31.6545 3.36936 31.154 2.64399 30.28C1.91792 29.4052 1.62196 28.264 1.83141 27.1462C2.31452 24.5686 3.26484 22.9028 4.13441 21.3816L4.15291 21.3493C5.03052 19.8143 5.79318 18.4804 5.79318 16.4067V14.2339C5.79318 8.80122 9.89983 4.24926 15.1718 3.56526L15.643 3.50412V0.907725C15.643 0.40638 16.0493 0 16.5507 0C17.052 0 17.4584 0.40638 17.4584 0.907725V3.50155L17.9315 3.56123C20.3042 3.86051 22.4998 4.94438 24.212 6.68508C26.2096 8.71565 27.3082 11.3952 27.3082 14.2339V16.4067C27.3082 18.0018 27.7581 19.1309 28.4801 20.4652C28.7188 20.9061 28.5547 21.457 28.1138 21.6956C27.9758 21.7703 27.8284 21.8052 27.6831 21.8052C27.3591 21.8052 27.0476 21.6322 26.8836 21.3293C26.1948 20.0567 25.4928 18.5708 25.4928 16.4067V14.2339C25.4928 9.37219 21.5568 5.36315 16.7094 5.29279L16.4277 5.29273L16.4199 5.29284C11.5587 5.3634 7.60863 9.3707 7.60863 14.2339V16.4067C7.60863 18.9515 6.676 20.5939 5.71041 22.2827L5.70331 22.2951C4.90543 23.6908 4.04349 25.1985 3.61584 27.4805C3.46559 28.282 3.82232 28.8571 4.04083 29.1205C4.259 29.3834 4.75754 29.8391 5.57086 29.8391H27.5585C28.3719 29.8391 28.8705 29.3831 29.0886 29.1204C29.3071 28.857 29.6638 28.282 29.5135 27.4805C29.4212 26.9879 29.7458 26.5136 30.2386 26.4212ZM18.568 31.6545H14.5894V32.1953C14.5894 33.2926 15.4814 34.1846 16.5787 34.1846C17.6761 34.1846 18.568 33.2926 18.568 32.1953V31.6545Z" fill="#F93749"/>
<path fill-rule="evenodd" clip-rule="evenodd" d="M5.49821 3.12985L5.49823 3.12988C5.87174 3.46422 5.90349 4.03808 5.56911 4.41163C3.14856 7.11555 1.81545 10.6049 1.81545 14.2358C1.81545 14.7372 1.40907 15.1436 0.907725 15.1436C0.40638 15.1436 0 14.7372 0 14.2358C0 10.1569 1.49738 6.23827 4.21648 3.20076L4.21648 3.20075C4.55085 2.82722 5.1247 2.79547 5.49821 3.12985Z" fill="#F93749"/>
<path fill-rule="evenodd" clip-rule="evenodd" d="M28.8884 3.20071C28.554 2.82722 27.9801 2.7955 27.6066 3.1298C27.2331 3.46417 27.2014 4.03806 27.5357 4.41158L27.1328 4.77225L27.5357 4.41158C29.9563 7.11557 31.2894 10.6048 31.2894 14.2358C31.2894 14.7371 31.6958 15.1435 32.1971 15.1435C32.6985 15.1435 33.1048 14.7371 33.1048 14.2358C33.1048 10.1569 31.6075 6.23823 28.8884 3.20072" fill="#F93749"/>
</svg>
