<svg width="48" height="48" viewBox="0 0 48 48" fill="none" xmlns="http://www.w3.org/2000/svg">
<path opacity="0.16" d="M40 19C40 26.732 33.732 33 26 33C24.6329 33 23.3115 32.804 22.0625 32.4387L18.6187 30.9813C18.54 30.948 18.4666 30.9033 18.4008 30.8487L16.375 29.1666C13.6807 26.615 12 23.0038 12 19C12 11.268 18.268 5 26 5C33.732 5 40 11.268 40 19Z" fill="#F93749"/>
<path d="M31.5108 31.7444L31.125 31.9587V32.4V36.375H16.875V32.4V31.9587L16.4892 31.7444C12.0061 29.2538 9 24.257 9 18.75C9 10.5017 15.7517 3.75 24 3.75C32.2483 3.75 39 10.5017 39 18.75C39 24.257 35.9939 29.2538 31.5108 31.7444ZM21.375 44.25C19.1571 44.25 17.2982 42.6202 16.9381 40.5H31.0619C30.7018 42.6202 28.8429 44.25 26.625 44.25H21.375Z" stroke="#F93749" stroke-width="1.5"/>
</svg>
