<svg width="16" height="16" viewBox="0 0 16 16" fill="none" xmlns="http://www.w3.org/2000/svg">
<path fill-rule="evenodd" clip-rule="evenodd" d="M10.7403 3.12309H12.3113C13.3325 3.12309 14 4 14 5.24616V7H2V5.24616C2 4.04616 2.78545 3.12309 3.80661 3.12309H5.37763V1.73848C5.37763 1.27694 5.61332 1 6.00607 1C6.39882 1 6.63452 1.36925 6.63452 1.73848V3.12309H9.48343V1.73848C9.48343 1.27694 9.71912 1 10.1119 1C10.5046 1 10.7403 1.36925 10.7403 1.73848V3.12309ZM3.89103 14C2.8668 14 2 13.3877 2 12.5918L2.00021 8H14V12.5918C14 13.3877 13.2122 14 12.188 14H3.89103Z" fill="#717171"/>
</svg>
