<svg width="48" height="48" viewBox="0 0 48 48" fill="none" xmlns="http://www.w3.org/2000/svg">
<path opacity="0.16" d="M23 5L27.2492 18.7508H41L29.8754 27.2492L34.1246 41L23 32.5016L11.8754 41L16.1246 27.2492L5 18.7508H18.7508L23 5Z" fill="#F93749"/>
<path d="M23.2877 5.55677C23.5141 4.86982 24.4859 4.86982 24.7123 5.55677L28.908 18.2859L29.6203 18.0511L28.908 18.2859C29.0364 18.6753 29.4002 18.9385 29.8103 18.9385H43.3294C44.0586 18.9385 44.3589 19.8737 43.7661 20.2982L32.85 28.1162L33.2867 28.7259L32.85 28.1162C32.5122 28.3581 32.3709 28.7914 32.5009 29.1859L33.2132 28.9511L32.5009 29.1859L36.6816 41.8694C36.9087 42.5585 36.1225 43.1364 35.5326 42.7139L24.5531 34.8506C24.2224 34.6137 23.7776 34.6137 23.4468 34.8506L12.4674 42.7139C11.8775 43.1364 11.0913 42.5585 11.3184 41.8694L15.4991 29.1859C15.6292 28.7914 15.4877 28.3581 15.15 28.1162L14.7133 28.7259L15.15 28.1162L4.23389 20.2982C3.6411 19.8737 3.94144 18.9385 4.67059 18.9385H18.1897C18.5998 18.9385 18.9636 18.6753 19.092 18.2859L18.3797 18.0511L19.092 18.2859L23.2877 5.55677Z" stroke="#F93749" stroke-width="1.5"/>
<path d="M10 4L16 11" stroke="#F93749" stroke-width="1.5" stroke-linecap="round"/>
<path d="M9 29L1 32" stroke="#F93749" stroke-width="1.5" stroke-linecap="round"/>
<path d="M39 29L47 32" stroke="#F93749" stroke-width="1.5" stroke-linecap="round"/>
<path d="M24 39L24 47" stroke="#F93749" stroke-width="1.5" stroke-linecap="round"/>
<path d="M38 4L32 11" stroke="#F93749" stroke-width="1.5" stroke-linecap="round"/>
</svg>
