<svg width="48" height="48" viewBox="0 0 48 48" fill="none" xmlns="http://www.w3.org/2000/svg">
<path opacity="0.16" d="M40 23.8621C40 31.931 31.9411 40 22 40C12.0589 40 4 32.5517 4 23.8621C4 12.8926 12.0589 4 22 4C31.9411 4 40 12.8926 40 23.8621Z" fill="#F93749"/>
<path d="M43.25 24C43.25 34.6315 34.6315 43.25 24 43.25C13.3685 43.25 4.75 34.6315 4.75 24C4.75 13.3685 13.3685 4.75 24 4.75C34.6315 4.75 43.25 13.3685 43.25 24Z" stroke="#F93749" stroke-width="1.5"/>
<path d="M28.2863 19.7139L19.7148 28.2853" stroke="#F93749" stroke-width="1.8" stroke-linecap="round" stroke-linejoin="round"/>
<path d="M19.7148 19.7139L28.2863 28.2853" stroke="#F93749" stroke-width="1.8" stroke-linecap="round" stroke-linejoin="round"/>
</svg>
