<svg width="16" height="10" viewBox="0 0 16 10" fill="none" xmlns="http://www.w3.org/2000/svg">
<path d="M1.59583 6.19946C1.596 6.19955 1.596 6.19964 1.59627 6.19982L4.96679 9.57056L4.96697 9.57038V9.57047L6.35071 8.18682L6.88098 8.71717L7.73428 9.57047L9.62374 7.6811C9.62392 7.68092 9.62419 7.68074 9.62437 7.68057L15.8237 1.48125C16.0592 1.24562 16.0592 0.863583 15.8237 0.627949C15.588 0.392246 15.2059 0.392246 14.9702 0.627949L8.77088 6.82726C8.7707 6.82735 8.7707 6.82762 8.77044 6.8278L7.73428 7.86387L7.20401 7.3336L13.0564 1.48126C13.2919 1.24563 13.2919 0.863593 13.0564 0.627959C12.8207 0.392256 12.4386 0.392256 12.2029 0.627959L6.00356 6.82727C6.00338 6.82736 6.00338 6.82763 6.00311 6.82781L4.96667 7.86397L2.02222 4.91951L1.03008 3.92728C0.794377 3.69158 0.412137 3.69158 0.176777 3.92728C-0.0589257 4.16292 -0.0589257 4.54495 0.176777 4.78059L1.59583 6.19946Z" fill="#4D55E5"/>
</svg>
