<svg width="48" height="48" viewBox="0 0 48 48" fill="none" xmlns="http://www.w3.org/2000/svg">
<path d="M27.6944 42.8352L14.6117 36.8886C9.68117 34.6474 6.19932 30.2099 5.11085 25.0423L5.11091 25.0423L5.10877 25.0327C4.87402 23.986 4.75 22.8968 4.75 21.7778V19.5556C4.75 11.3787 11.3787 4.75 19.5556 4.75H28.4444C36.6213 4.75 43.25 11.3787 43.25 19.5556V21.7778C43.25 29.9547 36.6213 36.5833 28.4444 36.5833H27.6944V37.3333V42.8352Z" stroke="#F93749" stroke-width="1.5"/>
<path opacity="0.16" d="M30.3889 35.4516C30.3889 37.1133 28.6713 38.2193 27.1585 37.5316L18.0137 33.3749C13.507 31.3264 10.3247 27.2705 9.32983 22.5472C9.11392 21.5846 9 20.5834 9 19.5556V17.6111C9 10.0939 15.0939 4 22.6111 4H30.3889C37.9061 4 44 10.0939 44 17.6111V19.5556C44 26.2975 39.0982 31.8946 32.6641 32.9774C31.4197 33.1868 30.3889 34.1896 30.3889 35.4516Z" fill="#F93749"/>
</svg>
