<svg width="24" height="24" viewBox="0 0 24 24" fill="none" xmlns="http://www.w3.org/2000/svg">
<path fill-rule="evenodd" clip-rule="evenodd" d="M13.2 15.5992C13.2 16.262 12.6628 16.7992 12.0001 16.7992C11.3374 16.7992 10.8001 16.262 10.8001 15.5992C10.8001 14.9365 11.3374 14.3992 12.0001 14.3992C12.6628 14.3992 13.2 14.9365 13.2 15.5992ZM10.7051 9.70171C10.8018 9.50847 10.9325 9.34262 11.1119 9.22307C11.2856 9.10727 11.5576 8.99922 12.0001 8.99922C12.3358 8.99922 12.6636 9.10309 12.8851 9.26922C13.0826 9.41732 13.2001 9.61133 13.2001 9.89922C13.2001 10.1112 13.1511 10.2158 13.1075 10.2812C13.0531 10.3629 12.9592 10.4532 12.7759 10.5754C12.6842 10.6365 12.5856 10.6959 12.4652 10.7682L12.4578 10.7726C12.3454 10.84 12.2126 10.9197 12.0821 11.0067C11.8154 11.1845 11.4968 11.4318 11.2513 11.8002C10.9756 12.2138 11.0874 12.7725 11.501 13.0482C11.9145 13.3239 12.4733 13.2121 12.749 12.7985C12.8034 12.7169 12.8973 12.6266 13.0806 12.5043C13.1723 12.4432 13.2709 12.3838 13.3913 12.3116L13.3987 12.3071C13.5111 12.2397 13.6439 12.16 13.7743 12.0731C14.041 11.8953 14.3596 11.6481 14.6052 11.2797C14.8615 10.8951 15 10.4373 15 9.89922C15 8.98711 14.5675 8.28111 13.9651 7.82922C13.3866 7.39535 12.6644 7.19922 12.0001 7.19922C11.2427 7.19922 10.6147 7.39117 10.1134 7.72537C9.6178 8.05581 9.29859 8.48996 9.09521 8.89673C8.87293 9.3413 9.05313 9.88192 9.49769 10.1042C9.94227 10.3265 10.4829 10.1463 10.7051 9.70171Z" fill="#222222"/>
<path d="M11.9984 20.8484C7.119 20.8484 3.14844 16.8779 3.14844 11.9984C3.14844 7.119 7.119 3.14844 11.9984 3.14844C16.8779 3.14844 20.8484 7.119 20.8484 11.9984C20.8484 16.8779 16.8779 20.8484 11.9984 20.8484Z" stroke="#222222" stroke-width="1.5"/>
</svg>
