<svg width="32" height="32" viewBox="0 0 32 32" fill="none" xmlns="http://www.w3.org/2000/svg">
<path d="M32 13.5C32 20.9558 25.2843 27 17 27C15.5352 27 14.1195 26.811 12.7812 26.4587L9.07862 25.0485C9.00277 25.0196 8.9313 24.9803 8.86628 24.9317L6.6875 23.3035C3.80072 20.843 2 17.3608 2 13.5C2 6.04416 8.71573 0 17 0C25.2843 0 32 6.04416 32 13.5Z" fill="#F93749" fill-opacity="0.16"/>
<path d="M11.6794 27.742L11.408 27.6701L11.1622 27.8055L6.14477 30.57C5.94483 30.6802 5.7 30.5356 5.7 30.3073V25.0297V24.708L5.4559 24.4985C2.51503 21.9745 0.7 18.4217 0.7 14.5C0.7 6.94171 7.48361 0.7 16 0.7C24.5164 0.7 31.3 6.94171 31.3 14.5C31.3 22.0583 24.5164 28.3 16 28.3C14.4983 28.3 13.0485 28.1049 11.6794 27.742Z" stroke="#F93749" stroke-width="1.4"/>
<path fill-rule="evenodd" clip-rule="evenodd" d="M8.66406 9.97135C8.66406 9.60347 8.96284 9.30469 9.33073 9.30469H16.0017C16.3695 9.30469 16.6683 9.60347 16.6683 9.97135C16.6683 10.3392 16.3695 10.638 16.0017 10.638H9.33073C8.96284 10.638 8.66406 10.3392 8.66406 9.97135Z" fill="#F93749"/>
<path fill-rule="evenodd" clip-rule="evenodd" d="M8.66406 14.7174C8.66406 14.3496 8.96284 14.0508 9.33073 14.0508H22.6726C23.0405 14.0508 23.3393 14.3496 23.3393 14.7174C23.3393 15.0853 23.0405 15.3841 22.6726 15.3841H9.33073C8.96284 15.3841 8.66406 15.0853 8.66406 14.7174Z" fill="#F93749"/>
<path fill-rule="evenodd" clip-rule="evenodd" d="M8.66406 19.4635C8.66406 19.0957 8.96284 18.7969 9.33073 18.7969H22.6726C23.0405 18.7969 23.3393 19.0957 23.3393 19.4635C23.3393 19.8314 23.0405 20.1302 22.6726 20.1302H9.33073C8.96284 20.1302 8.66406 19.8314 8.66406 19.4635Z" fill="#F93749"/>
</svg>
