<svg width="136" height="32" viewBox="0 0 136 32" fill="none" xmlns="http://www.w3.org/2000/svg">
<g clip-path="url(#clip0_7024_7084)">
<path fill-rule="evenodd" clip-rule="evenodd" d="M4.85635 19.011C4.55756 18.4131 4.02677 17.3508 5.47565 16.1423C5.86945 15.8138 7.26053 14.9098 8.9661 13.8014C11.0857 12.424 13.691 10.7309 15.4716 9.43455C15.7884 9.20386 15.9997 8.86019 16.0726 8.47509L17.4654 1.11243C17.5707 0.55579 16.9451 0.153797 16.4826 0.480857L1.86922 10.8134C0.638164 11.6553 -1.46181 13.6251 -0.00390878 16.2712C1.16546 18.3936 4.98178 19.2856 4.98178 19.2856C4.95584 19.2101 4.90981 19.118 4.85635 19.011ZM14.6037 12.5492C14.9025 13.1472 15.4333 14.2095 13.9844 15.418C13.5906 15.7465 12.1995 16.6505 10.4939 17.7588C8.37434 19.1363 5.76902 20.8294 3.98848 22.1257C3.67163 22.3564 3.46032 22.7001 3.38747 23.0852L1.99464 30.4478C1.88934 31.0045 2.51491 31.4065 2.97747 31.0794L17.5908 20.7469C18.8219 19.905 20.9218 17.9351 19.4639 15.2891C18.2946 13.1667 14.4783 12.2747 14.4783 12.2747C14.5042 12.3502 14.5502 12.4423 14.6037 12.5492Z" fill="url(#paint0_linear_7024_7084)"/>
<path d="M36.5023 20.4739L37.0388 17.6572H30.3728L31.6872 10.8973H27.6634L25.8125 20.4739H36.5023Z" fill="#222222"/>
<path d="M45.5106 10.8973L42.7207 14.2639L41.2185 10.8973H36.7253L40.2126 17.4426L39.6224 20.4739H43.6462L44.2364 17.4426L50.2452 10.8973H45.5106Z" fill="#222222"/>
<path d="M63.0346 10.8973H51.5266L50.9767 13.7676H54.7188L53.4178 20.4739H57.4416L58.7426 13.7676H62.4847L63.0346 10.8973Z" fill="#222222"/>
<path d="M68.4754 13.3384H75.3024L75.7719 10.8973H64.9211L63.0702 20.4739H74.0014L74.4574 18.073H67.55L67.8048 16.7586H74.2831L74.7257 14.5455H68.2474L68.4754 13.3384Z" fill="#222222"/>
<path d="M85.1205 13.7676H89.6003C89.6137 13.6737 89.6137 13.5798 89.6137 13.4859C89.6137 11.2594 87.2531 10.5352 83.7658 10.5352C80.6541 10.5352 79.2457 10.9912 78.3069 11.7557C77.6094 12.319 77.1936 13.1372 77.1936 14.1297C77.1936 15.9002 78.7092 16.5574 80.5333 16.7586L83.4439 17.0805C84.2889 17.1744 84.5437 17.3488 84.5437 17.6572C84.5437 17.778 84.4901 17.9791 84.2755 18.1133C84.0474 18.2608 83.6048 18.3413 82.6794 18.3413C81.432 18.3413 80.7479 18.1669 80.8418 17.3219H76.2816C76.2681 17.4829 76.2547 17.6438 76.2547 17.7914C76.2547 20.1386 78.441 20.836 82.3843 20.836C85.8581 20.836 87.0653 20.4471 87.9371 19.8435C88.9565 19.146 89.3052 17.8987 89.3052 17.0805C89.3052 15.4173 87.9773 14.5589 85.9923 14.3846L82.8671 14.1029C82.049 14.0224 81.8075 13.9017 81.8075 13.6066C81.8075 13.4323 81.9148 13.2847 82.0624 13.1908C82.3709 12.9897 82.8537 12.9494 83.5244 12.9494C84.6912 12.9494 85.1473 13.2713 85.1205 13.7676Z" fill="#222222"/>
<path d="M101.188 10.8973L100.223 15.9136H100.142L96.9635 10.8973H92.4971L90.6461 20.4739H94.4285L95.4076 15.4039H95.4881L98.7071 20.4739H103.12L104.971 10.8973H101.188Z" fill="#222222"/>
<path d="M114.963 20.4739H119.121L116.318 10.8973H111.033L104.609 20.4739H109.062L109.826 19.2668H114.641L114.963 20.4739ZM111.409 16.772L113.179 14.009H113.26L113.984 16.772H111.409Z" fill="#222222"/>
<path d="M130.451 10.8973H122.457L120.606 20.4739H124.63L125.153 17.7645H129.338C131.282 17.7645 132.463 17.3219 133.2 16.5976C133.938 15.86 134.22 14.8272 134.22 13.553C134.22 11.7825 133.147 10.8973 130.451 10.8973ZM128.479 15.2698H125.636L125.984 13.4993H128.828C129.525 13.4993 129.78 13.7139 129.78 14.1431C129.78 14.3577 129.727 14.6126 129.552 14.8406C129.378 15.0686 129.069 15.2698 128.479 15.2698Z" fill="#222222"/>
</g>
<defs>
<linearGradient id="paint0_linear_7024_7084" x1="9.73002" y1="32.8351" x2="22.1527" y2="2.58399" gradientUnits="userSpaceOnUse">
<stop stop-color="#4756E9"/>
<stop offset="0.865173" stop-color="#F93749"/>
</linearGradient>
<clipPath id="clip0_7024_7084">
<rect width="136" height="32" fill="white"/>
</clipPath>
</defs>
</svg>
