<svg width="24" height="24" viewBox="0 0 24 24" fill="none" stroke="none" xmlns="http://www.w3.org/2000/svg">
    <path d="M7.68237 19.37L7.94614 19.5217C9.22658 20.2579 10.6787 20.6458 12.1667 20.6458C16.8532 20.6458 20.6458 16.8538 20.6458 12.1667C20.6458 7.48016 16.8538 3.6875 12.1667 3.6875C7.48016 3.6875 3.6875 7.47953 3.6875 12.1667C3.6875 13.6546 4.07548 15.1067 4.81164 16.3872L4.9633 16.651L4.87004 16.9406L3.68896 20.6083L3.68892 20.6084C3.68566 20.6186 3.68832 20.6298 3.69594 20.6374C3.70355 20.645 3.71473 20.6476 3.72501 20.6444L7.68237 19.37ZM7.68237 19.37L7.39274 19.4633L3.72516 20.6443L7.68237 19.37Z" stroke-width="1.375" />
    <circle cx="8.4987" cy="11.9987" r="0.916667" fill="#717171" />
    <circle cx="12.1667" cy="11.9987" r="0.916667" fill="#717171" />
    <circle cx="15.8307" cy="11.9987" r="0.916667" fill="#717171" />
</svg>