<svg width="92" height="92" viewBox="0 0 92 92" fill="none" xmlns="http://www.w3.org/2000/svg">
<mask id="mask0_4489_76214" style="mask-type:alpha" maskUnits="userSpaceOnUse" x="0" y="0" width="92" height="92">
<rect width="92" height="92" rx="10" fill="#C4C4C4"/>
</mask>
<g mask="url(#mask0_4489_76214)">
<rect width="92" height="92" rx="10" fill="#EFF1F4"/>
<path d="M20.1853 94.7974C9.97608 89.3954 1.71919 80.9262 -3.42188 70.583L14.2789 65.707L20.1853 94.7974Z" fill="#EFF1F4"/>
<path d="M81.7356 78.6584L63.9796 83.516L62.1764 74.6288L23.8492 85.08L19.6172 64.2512L44.678 57.3512C47.3475 61.3161 50.2732 65.1023 53.4364 68.6856C58.1309 63.4397 62.2457 57.7025 65.7092 51.5736L75.7004 48.832L81.7356 78.6584Z" fill="#EFF1F4"/>
<path d="M101.031 41.7698C100.958 40.9234 100.866 40.077 100.774 39.2306C100.755 39.0834 100.737 38.9546 100.719 38.8074C100.608 37.9795 100.479 37.1699 100.332 36.3786V36.3418L68.7577 45.0266C70.0997 42.0494 70.8317 38.8337 70.9105 35.569L70.8553 35.661C70.8737 35.3298 70.9105 34.9986 70.9105 34.649C70.9105 30.013 69.0689 25.5669 65.7907 22.2888C62.5126 19.0106 58.0665 17.169 53.4305 17.169C48.7945 17.169 44.3484 19.0106 41.0703 22.2888C37.7921 25.5669 35.9505 30.013 35.9505 34.649C35.9505 34.9986 35.9873 35.3299 36.0057 35.661L35.9505 35.569C35.9505 35.569 35.5273 41.6042 41.6729 52.4786L32.3993 55.0178L19.7585 -2.57422C18.0515 -1.64148 16.3933 -0.622016 14.7905 0.480182C4.59878 7.46434 -2.95488 17.6661 -6.66118 29.4522C-10.3675 41.2383 -10.0121 53.9272 -5.65191 65.4874C-5.61511 65.561 -5.59671 65.6346 -5.55991 65.7082C-5.28391 66.4442 -4.98951 67.1802 -4.67671 67.8795C-4.5913 68.1146 -4.48668 68.3423 -4.36391 68.5603C-4.10631 69.2043 -3.79351 69.8299 -3.48071 70.4555C-3.46231 70.4923 -3.44391 70.5475 -3.42551 70.5843L14.2753 65.7083L20.1817 94.7987C20.7705 95.1115 21.3593 95.4059 21.9665 95.7004C22.7761 96.0868 23.6041 96.4732 24.4321 96.8228C25.0761 97.0988 25.7201 97.3564 26.3825 97.614L24.9289 90.4932L57.9201 81.4956L61.4713 98.9756C61.5031 98.9785 61.535 98.9721 61.5633 98.9572L61.7841 98.902C62.5753 98.6628 63.3665 98.4052 64.1393 98.1292C64.9121 97.8716 65.6849 97.5772 66.4577 97.2644L66.7337 97.154L65.0777 88.9476L82.8337 84.09L83.3489 86.629C83.7537 86.261 84.1769 85.8746 84.5633 85.4699C84.7841 85.2675 84.9865 85.0651 85.1889 84.8443C85.7593 84.2739 86.3113 83.7035 86.8449 83.1147C87.2313 82.6731 87.6177 82.2315 88.0041 81.7899L81.0305 47.3634L101.031 41.8618V41.7698ZM81.7297 78.6618L63.9737 83.5194L62.1705 74.6322L23.8433 85.0834L19.6113 64.2546L44.6721 57.3546C47.3416 61.3195 50.2673 65.1057 53.4305 68.689C58.125 63.443 62.2398 57.7058 65.7033 51.577L75.6945 48.8354L81.7297 78.6618Z" fill="#EFF1F4"/>
<path d="M101.198 45.9994C101.214 59.1212 96.5341 71.8157 88.0049 81.7874L81.0312 47.361L101.032 41.8594C101.142 43.221 101.198 44.601 101.198 45.9994Z" fill="#EFF1F4"/>
<path d="M61.4721 98.9761C56.4479 100.459 51.2361 101.209 45.9977 101.202C39.2957 101.21 32.6486 99.9941 26.3833 97.6145L24.9297 90.4937L57.9209 81.4961L61.4721 98.9761Z" fill="#EFF1F4"/>
<path d="M68.7648 45.0217C70.1068 42.0445 70.8388 38.8287 70.9176 35.5641L70.8624 35.6561C70.8808 35.3249 70.9176 34.9937 70.9176 34.6441C70.9176 30.0081 69.076 25.562 65.7979 22.2838C62.5197 19.0057 58.0736 17.1641 53.4376 17.1641C48.8016 17.1641 44.3555 19.0057 41.0774 22.2838C37.7993 25.562 35.9576 30.0081 35.9576 34.6441C35.9576 34.9937 35.9944 35.325 36.0128 35.6561L35.9576 35.5641C35.9576 35.5641 35.5344 41.5993 41.68 52.4737L32.4064 55.0129L19.7656 -2.57914C27.4519 -6.72745 36.0128 -8.99285 44.7448 -9.18917C53.4769 -9.3855 62.1309 -7.50717 69.9959 -3.7085C77.8608 0.0901709 84.7122 5.70076 89.9871 12.6623C95.262 19.6238 98.8099 27.7375 100.339 36.3369L68.7648 45.0217Z" fill="#EFF1F4"/>
<path d="M33.0313 57.8514L27.6401 59.0474L27.0697 56.4898L14.7969 0.480182C16.3997 -0.622016 18.0579 -1.64148 19.7649 -2.57422L32.4057 55.0178L33.0313 57.8514Z" fill="#B5B5B5"/>
<path d="M82.6514 4.73662C80.9451 3.21852 79.1465 1.80752 77.2659 0.511719L66.7414 3.40738L57.4678 5.94658L52.1318 7.41858L23.6719 15.2459L24.8537 20.6299L69.7406 8.28347L82.6514 4.73662Z" fill="#E5E7EA"/>
<path d="M94.9251 20.4258L69.3594 27.4571C70.1234 29.1382 70.6141 30.9305 70.813 32.7663L97.2445 25.4961C96.5578 23.7678 95.7837 22.0755 94.9251 20.4258Z" fill="#E5E7EA"/>
<path d="M54.0858 7.17878L54.6562 9.73638L60.0474 8.54038L59.4218 5.70678L56.3647 -8.22187C54.4382 -8.58715 52.4935 -8.8495 50.5391 -9.00781L54.0858 7.17878Z" fill="#E5E7EA"/>
<path d="M26.3787 97.6114C25.7163 97.3538 25.0723 97.0962 24.4283 96.8202C23.6003 96.4706 22.7723 96.0842 21.9627 95.6978C21.3555 95.4034 20.7667 95.109 20.1779 94.7961L14.2715 65.7057L13.9219 63.9946L19.3314 62.8906L19.6074 64.2522L23.8394 85.081L24.925 90.4906L26.3787 97.6114Z" fill="#E5E7EA"/>
<path d="M66.7346 97.1505L66.4586 97.2609C65.6858 97.5737 64.913 97.8681 64.1402 98.1257C63.3674 98.4017 62.5762 98.6593 61.785 98.8985L61.5642 98.9537C61.5274 98.9721 61.509 98.9905 61.4722 98.9905V98.9721L57.921 81.4921L24.9298 90.4897L22.4458 91.1705L20.9922 85.8529L23.8442 85.0801L62.1714 74.6289L63.9746 83.5161L65.0786 88.9441L66.7346 97.1505Z" fill="#E5E7EA"/>
<path d="M97.207 110.307C96.8206 110.749 96.4342 111.191 96.0478 111.632C95.5142 112.221 94.9622 112.791 94.3918 113.362C94.1894 113.583 93.987 113.785 93.7662 113.987C93.3798 114.392 92.9566 114.779 92.5518 115.146L92.0366 112.607L90.9326 107.179L75.6974 48.833L75.4766 47.729L80.8862 46.625L81.0334 47.361L97.207 110.307Z" fill="#E5E7EA"/>
<path d="M85.6846 83.3126L82.8326 84.0854L65.0766 88.943L61.9302 89.7894L60.4766 84.4718L63.9726 83.515L81.7286 78.6574L84.231 77.9766L85.6846 83.3126Z" fill="#E5E7EA"/>
<path d="M101.035 41.7718V41.8637L81.034 47.3653L75.698 48.8374L65.7068 51.5789L44.6756 57.3565L19.6148 64.2565L14.2788 65.7101L-3.42204 70.5862C-3.44035 70.5494 -3.45884 70.4942 -3.47724 70.4574C-3.79004 69.8318 -4.10284 69.2061 -4.36044 68.5621C-4.48321 68.3442 -4.58783 68.1165 -4.67324 67.8813C-4.98604 67.1821 -5.28044 66.4461 -5.55644 65.7101C-5.59324 65.6365 -5.61164 65.5629 -5.64844 65.4893L27.0668 56.4918L32.4028 55.0198L41.6764 52.4806L68.7612 45.0285L100.336 36.3438V36.3806C100.483 37.1718 100.612 37.9814 100.722 38.8094C100.74 38.9566 100.759 39.0853 100.777 39.2325C100.869 40.0789 100.961 40.9254 101.035 41.7718Z" fill="#B5B5B5"/>
<path d="M64.6584 49.8332C64.0126 51.4782 63.261 53.0801 62.4082 54.6291C59.8566 59.1163 56.8252 63.3167 53.3667 67.1575C51.0363 64.534 48.8809 61.7619 46.9142 58.8591C46.0738 57.5928 45.3418 56.4073 44.7047 55.2892C40.1772 47.3276 40.4889 42.9089 40.4889 42.9089L40.5296 42.9763C40.5161 42.7338 40.4889 42.4913 40.4889 42.2354C40.4889 38.8412 41.8457 35.586 44.2607 33.1859C46.6758 30.7858 49.9513 29.4375 53.3667 29.4375C56.782 29.4375 60.0575 30.7858 62.4726 33.1859C64.8876 35.586 66.2444 38.8412 66.2444 42.2354C66.2444 42.4913 66.2173 42.7339 66.2037 42.9763L66.2444 42.9089C66.1863 45.2991 65.647 47.6536 64.6584 49.8332Z" fill="#4D55E5"/>
<path d="M53.3638 48.7587C56.4124 48.7587 58.8837 46.2874 58.8837 43.2387C58.8837 40.1901 56.4124 37.7188 53.3638 37.7188C50.3151 37.7188 47.8438 40.1901 47.8438 43.2387C47.8438 46.2874 50.3151 48.7587 53.3638 48.7587Z" fill="white"/>
</g>
</svg>
