<svg width="20" height="20" viewBox="0 0 20 20" fill="none" xmlns="http://www.w3.org/2000/svg">
<path fill-rule="evenodd" clip-rule="evenodd" d="M12.7403 5.12309H14.3113C15.3325 5.12309 16 6 16 7.24616V9H4V7.24616C4 6.04616 4.78545 5.12309 5.80661 5.12309H7.37763V3.73848C7.37763 3.27694 7.61332 3 8.00607 3C8.39882 3 8.63452 3.36925 8.63452 3.73848V5.12309H11.4834V3.73848C11.4834 3.27694 11.7191 3 12.1119 3C12.5046 3 12.7403 3.36925 12.7403 3.73848V5.12309ZM5.89103 16C4.8668 16 4 15.3877 4 14.5918L4.00021 10H16V14.5918C16 15.3877 15.2122 16 14.188 16H5.89103Z" fill="#F93749"/>
</svg>
