<svg width="40" height="30" viewBox="0 0 40 30" fill="none" xmlns="http://www.w3.org/2000/svg">
<path d="M29.267 25.9993C26.5332 25.9536 23.8176 25.5546 21.1905 24.8129C17.8057 23.8061 14.2465 23.4876 10.7314 23.8769C9.00783 24.0825 7.29935 24.3951 5.61628 24.8129C5.41761 24.8622 5.21005 24.8665 5.00943 24.8254C4.80881 24.7843 4.62042 24.6988 4.45865 24.5756C4.30805 24.4463 4.18882 24.2857 4.10965 24.1055C4.03047 23.9254 3.99335 23.7302 4.00098 23.5342V3.44269C3.99202 3.14157 4.08865 2.84652 4.27479 2.60667C4.46093 2.36683 4.72534 2.19665 5.024 2.12448C6.98744 1.64284 8.98539 1.30793 11.0006 1.12263C14.6252 0.787416 18.2817 1.14102 21.7693 2.16402C24.9992 3.11413 28.3867 3.44094 31.7438 3.12632C33.6288 2.92954 35.4961 2.59465 37.33 2.12448C37.5287 2.0751 37.7363 2.07082 37.9369 2.11194C38.1375 2.15306 38.3259 2.2385 38.4877 2.36176C38.6536 2.48995 38.7864 2.65462 38.8752 2.84241C38.9641 3.0302 39.0066 3.23584 38.9992 3.44269V23.5342C39.0081 23.8353 38.9115 24.1304 38.7254 24.3702C38.5392 24.6101 38.2748 24.7802 37.9762 24.8524C36.1792 25.302 34.3534 25.6323 32.5111 25.8411C31.4336 25.9542 30.3505 26.007 29.267 25.9993Z" fill="#F93749" fill-opacity="0.16"/>
<path d="M7.9168 26.645L7.9168 26.645L7.91043 26.6457C5.95824 26.8835 4.02313 27.245 2.11681 27.7282L2.11661 27.7283C2.00592 27.7564 1.89027 27.7588 1.7785 27.7354C1.6739 27.7135 1.57529 27.6696 1.4892 27.6066C1.41299 27.5357 1.3523 27.4496 1.31109 27.3539C1.26698 27.2514 1.24629 27.1403 1.25054 27.0288L1.25109 27.0145V27.0002V3.00024V2.98932L1.25077 2.9784C1.24578 2.80708 1.29962 2.63921 1.40333 2.50275L0.80621 2.04893L1.40333 2.50275C1.50704 2.36629 1.65436 2.26946 1.82077 2.2284L1.82077 2.22841L1.82332 2.22777C3.97443 1.68895 6.16335 1.31427 8.3712 1.10696L8.37161 1.10692C12.3144 0.734563 16.2921 1.12735 20.0859 2.26371C23.7779 3.37263 27.6501 3.75407 31.4875 3.38683L31.4875 3.38688L31.4956 3.38602C33.6323 3.15825 35.749 2.7707 37.8278 2.22663C37.9378 2.19908 38.0527 2.19683 38.1637 2.22007C38.2746 2.24328 38.3788 2.29133 38.4685 2.36059C38.56 2.4333 38.6333 2.52642 38.6825 2.63253C38.732 2.73937 38.7557 2.85637 38.7516 2.97405L38.7511 2.98714V3.00024V27.0002V27.0112L38.7514 27.0221C38.7564 27.1934 38.7026 27.3613 38.5989 27.4977C38.4951 27.6342 38.3478 27.731 38.1814 27.7721L38.1755 27.7736C36.2068 28.2765 34.2064 28.6461 32.188 28.8799C31.018 29.0051 29.8419 29.0637 28.6652 29.0553C25.6879 29.0041 22.7303 28.5606 19.8689 27.736C16.0008 26.562 11.9336 26.1907 7.9168 26.645Z" stroke="#F93749" stroke-width="1.5"/>
<path d="M0.500637 3.00075V9.00075C0.499426 9.37863 0.640884 9.74304 0.896732 10.0211C1.15258 10.2992 1.50397 10.4705 1.88064 10.5007L0.500637 3.00075ZM0.500637 3.00075C0.490654 2.65809 0.598336 2.32236 0.805757 2.04944L0.500637 3.00075ZM1.91585 9.75075C1.73693 9.7304 1.57098 9.64628 1.44868 9.51335C1.32076 9.3743 1.25003 9.19209 1.25064 9.00315V9.00075V3.00075V2.98982L1.25032 2.97891C1.24533 2.80758 1.29917 2.63971 1.40288 2.50325C1.50659 2.36679 1.65391 2.26997 1.82032 2.2289L1.82032 2.22891L1.82287 2.22827C3.97398 1.68945 6.1629 1.31477 8.37075 1.10746L8.37075 1.10747L8.37417 1.10713C8.55419 1.0894 8.73455 1.13732 8.88202 1.24206L9.31311 0.635132L8.88202 1.24206C9.027 1.34504 9.13059 1.49611 9.17447 1.66824C9.26593 2.10398 9.30992 2.54835 9.30567 2.99358L9.30564 2.99358V3.00075C9.30564 4.79096 8.59448 6.50785 7.32861 7.77372C6.06274 9.03959 4.34585 9.75075 2.55564 9.75075H1.91585Z" stroke="#F93749" stroke-width="1.5"/>
<path d="M24.5956 16.209C24.5956 14.368 23.3598 13.7499 21.769 13.5618L19.8088 13.3468V10.928C21.0872 10.9951 22.053 11.3714 22.1241 12.5002H24.2689C24.2263 10.3233 22.2661 9.5573 19.8088 9.47667V8.36133H18.9707V9.47667C16.4992 9.54386 14.7095 10.3501 14.7095 12.2583C14.7095 13.938 15.9027 14.5427 17.5077 14.7443L18.9707 14.919V17.6872C17.6214 17.6066 16.5987 17.1766 16.5276 15.8328H14.3828C14.4254 18.2919 16.3572 19.0847 18.9707 19.1654V20.6166H19.8088V19.1654C22.678 19.1116 24.5956 18.3456 24.5956 16.209ZM18.2889 13.1721C17.4509 13.0646 16.8969 12.8496 16.8969 12.1374C16.8969 11.358 17.7208 10.9817 18.9707 10.928V13.2527L18.2889 13.1721ZM19.8088 17.7006V15.0131L20.8031 15.134C21.7121 15.2415 22.3513 15.47 22.3655 16.3434C22.3797 17.2034 21.3854 17.6603 19.8088 17.7006Z" fill="#F93749"/>
<path d="M37.6148 9.75681L37.5682 9.75106L37.5213 9.75116C35.9629 9.7546 34.4513 9.21869 33.2431 8.2344C32.0369 7.25175 31.2072 5.88264 30.8943 4.35877C30.8749 4.24934 30.8801 4.13694 30.9094 4.0297C30.9393 3.92059 30.9935 3.81966 31.0679 3.73446L31.0879 3.71155L31.106 3.68709C31.1679 3.60339 31.2465 3.53349 31.3369 3.48184C31.4273 3.43019 31.5274 3.39792 31.631 3.38709L31.631 3.38711L31.6365 3.38649C33.7267 3.15205 35.7969 2.76464 37.8304 2.22737C37.9402 2.19999 38.0548 2.1978 38.1655 2.22099C38.2765 2.24421 38.3807 2.29227 38.4704 2.36155C38.5619 2.43426 38.6352 2.52736 38.6843 2.63344C38.7339 2.74028 38.7575 2.85729 38.7534 2.97497L38.7529 2.98806V3.00116V9.00116H38.7529L38.753 9.01207C38.7556 9.19074 38.6943 9.36447 38.5802 9.50197C38.4695 9.63532 38.3162 9.7261 38.1464 9.75915C37.9698 9.77938 37.7913 9.7786 37.6148 9.75681Z" stroke="#F93749" stroke-width="1.5"/>
<path d="M8.62752 25.7715L8.6278 25.773C8.6468 25.8745 8.64462 25.9789 8.62139 26.0796C8.59844 26.179 8.55546 26.2726 8.49509 26.3549C8.43369 26.4349 8.35677 26.5018 8.26889 26.5515L8.63793 27.2044L8.26889 26.5515C8.17989 26.6018 8.08156 26.6334 7.97992 26.6443L7.97991 26.6442L7.96934 26.6455C6.01748 26.8832 4.0827 27.2446 2.17669 27.7277C2.11851 27.7422 2.0588 27.7497 1.99885 27.75C1.80035 27.7497 1.61005 27.6707 1.46967 27.5303L0.93934 28.0607L1.46967 27.5303C1.32902 27.3897 1.25 27.1989 1.25 27V21C1.25 20.8011 1.32902 20.6103 1.46967 20.4697C1.61023 20.3291 1.80083 20.2501 1.9996 20.25C3.57499 20.2522 5.1 20.8053 6.31046 21.8136C7.52107 22.8221 8.34077 24.2222 8.62752 25.7715Z" stroke="#F93749" stroke-width="1.5"/>
<path d="M32.2418 28.8571L32.1662 28.8433L32.0894 28.8452C31.916 28.8495 31.7465 28.7935 31.6098 28.6868C31.477 28.5833 31.383 28.4381 31.3428 28.2749C31.2711 27.8608 31.2408 27.4407 31.2524 27.0206L31.2527 27.0103V27C31.2527 25.2098 31.9638 23.4929 33.2297 22.227C34.4956 20.9612 36.2125 20.25 38.0027 20.25C38.2016 20.25 38.3924 20.329 38.533 20.4697C38.6737 20.6103 38.7527 20.8011 38.7527 21V27V27.0109L38.753 27.0218C38.758 27.1932 38.7042 27.361 38.6004 27.4975C38.4967 27.634 38.3494 27.7308 38.183 27.7718L38.183 27.7718L38.177 27.7733C36.2432 28.2674 34.2788 28.6327 32.2967 28.8671L32.2418 28.8571Z" stroke="#F93749" stroke-width="1.5"/>
</svg>
