<svg width="23" height="22" viewBox="0 0 23 22" fill="none" xmlns="http://www.w3.org/2000/svg">
<path opacity="0.16" fill-rule="evenodd" clip-rule="evenodd" d="M18.9113 18.5004C20.5803 16.6843 21.5992 14.2613 21.5992 11.6004C21.5992 5.96709 17.0325 1.40039 11.3992 1.40039C5.76591 1.40039 1.19922 5.96709 1.19922 11.6004C1.19922 14.2613 2.21816 16.6843 3.88715 18.5004C5.75146 16.4718 8.42687 15.2004 11.3992 15.2004C14.3716 15.2004 17.047 16.4718 18.9113 18.5004Z" fill="#F93749"/>
<path opacity="0.16" fill-rule="evenodd" clip-rule="evenodd" d="M3.92188 21.2C5.58395 18.6703 8.44693 17 11.7 17C14.9531 17 17.8161 18.6703 19.4782 21.2H3.92188Z" fill="#F93749"/>
<path fill-rule="evenodd" clip-rule="evenodd" d="M11.3993 1.81998C5.99795 1.81998 1.6193 6.19864 1.6193 11.6C1.6193 13.1494 1.97931 14.6136 2.61986 15.9144C2.72233 16.1225 2.6367 16.3743 2.4286 16.4768C2.2205 16.5792 1.96873 16.4936 1.86627 16.2855C1.17013 14.8718 0.779297 13.2809 0.779297 11.6C0.779297 5.73472 5.53403 0.97998 11.3993 0.97998C17.2646 0.97998 22.0193 5.73472 22.0193 11.6C22.0193 13.2809 21.6285 14.8718 20.9323 16.2855C20.8299 16.4936 20.5781 16.5792 20.37 16.4768C20.1619 16.3743 20.0763 16.1225 20.1787 15.9144C20.8193 14.6136 21.1793 13.1494 21.1793 11.6C21.1793 6.19864 16.8006 1.81998 11.3993 1.81998Z" fill="#F93749"/>
<path fill-rule="evenodd" clip-rule="evenodd" d="M4.64123 20.3597C4.52328 20.3635 4.40851 20.3213 4.32106 20.2422C4.23566 20.1614 4.18561 20.0501 4.18187 19.9325C4.17814 19.8154 4.22063 19.7016 4.30008 19.6157C5.23815 18.6732 6.35803 17.9313 7.5917 17.4351C8.82657 16.9383 10.1496 16.698 11.4803 16.7289L11.486 16.729L11.4916 16.7289C12.8215 16.697 14.1439 16.9357 15.3787 17.4304C16.6123 17.9247 17.7326 18.6643 18.6719 19.6043C18.7515 19.6902 18.7941 19.8041 18.7904 19.9212C18.7868 20.0395 18.7362 20.1514 18.65 20.2324C18.5638 20.3135 18.4489 20.3569 18.3307 20.3532C18.2124 20.3495 18.1005 20.299 18.0195 20.2128L18.0196 20.2127L18.0137 20.2069C17.1571 19.3564 16.1369 18.6888 15.0148 18.2442C13.8947 17.8005 12.6963 17.5884 11.492 17.6206C10.2849 17.5888 9.08396 17.8021 7.96166 18.2476C6.83732 18.694 5.8154 19.3641 4.95789 20.2173L4.95785 20.2173L4.95447 20.2208C4.87213 20.3061 4.75975 20.356 4.64123 20.3597Z" fill="#F93749"/>
<path fill-rule="evenodd" clip-rule="evenodd" d="M10.7286 7.06372C11.4803 6.91419 12.2595 6.99094 12.9676 7.28424C13.6757 7.57755 14.2809 8.07424 14.7067 8.71152C15.1325 9.34873 15.3598 10.0979 15.3598 10.8642C15.3588 11.8918 14.9501 12.8769 14.2236 13.6035C13.497 14.33 12.5119 14.7387 11.4844 14.7397C10.718 14.7396 9.96885 14.5124 9.33164 14.0866C8.69436 13.6608 8.19767 13.0556 7.90436 12.3475C7.61105 11.6394 7.53431 10.8602 7.68384 10.1085C7.83336 9.35674 8.20244 8.66624 8.7444 8.12428C9.28636 7.58233 9.97686 7.21325 10.7286 7.06372ZM12.0666 7.93832C11.4879 7.82321 10.888 7.88229 10.3429 8.1081C9.7977 8.33391 9.33175 8.71631 9.00392 9.20694C8.67609 9.69757 8.50111 10.2744 8.50111 10.8645C8.50111 11.6557 8.81544 12.4146 9.37495 12.9741C9.93446 13.5336 10.6933 13.8479 11.4846 13.8479C12.0747 13.8479 12.6515 13.673 13.1421 13.3451C13.6328 13.0173 14.0152 12.5514 14.241 12.0062C14.4668 11.461 14.5259 10.8612 14.4107 10.2824C14.2956 9.70369 14.0115 9.17208 13.5942 8.75484C13.177 8.33759 12.6454 8.05344 12.0666 7.93832Z" fill="#F93749"/>
</svg>
