<svg width="18" height="21" viewBox="0 0 18 21" fill="none" xmlns="http://www.w3.org/2000/svg">
<path d="M14.25 6C14.25 8.8995 11.8995 11.25 9 11.25C6.10051 11.25 3.75 8.8995 3.75 6C3.75 3.10051 6.10051 0.75 9 0.75C11.8995 0.75 14.25 3.10051 14.25 6Z" stroke="#222222" stroke-width="1.5" stroke-linecap="round" stroke-linejoin="round"/>
<path d="M0.750029 17.498L0.750013 17.494C0.748953 17.2232 0.810538 16.955 0.930956 16.7092C1.10047 16.3821 1.45858 16.0707 1.99801 15.8011C2.52975 15.5353 3.16217 15.3482 3.75803 15.2289L3.75803 15.2289L3.76372 15.2277C4.64766 15.0437 5.54387 14.9207 6.44564 14.8597L6.44565 14.8598L6.45911 14.8587C8.14967 14.7138 9.85001 14.7138 11.5406 14.8587L11.5406 14.8588L11.5534 14.8597C12.4555 14.9214 13.3521 15.0444 14.2365 15.2279L14.2365 15.2279L14.2416 15.2289C14.8481 15.3503 15.4792 15.5257 16.0075 15.7841C16.5421 16.0455 16.8954 16.3542 17.0646 16.7009C17.3118 17.2084 17.3118 17.796 17.0646 18.3036C16.8955 18.6502 16.5423 18.9586 16.0087 19.2184C15.4814 19.4751 14.8514 19.6479 14.2476 19.7638L14.2297 19.7674C13.3491 19.9586 12.4549 20.0847 11.5548 20.1447L11.5548 20.1446L11.5428 20.1456C10.1658 20.2595 8.78233 20.2802 7.40237 20.2077C7.38926 20.207 7.37614 20.2067 7.36301 20.2067C7.02659 20.2067 6.78271 20.2045 6.53872 20.1569C6.50759 20.1508 6.47611 20.1467 6.44447 20.1446C5.54838 20.0855 4.6583 19.9594 3.78204 19.7677L3.76184 19.7635C3.15321 19.6478 2.52352 19.475 1.99639 19.2184C1.46547 18.9599 1.10944 18.6514 0.934025 18.3014C0.81222 18.0494 0.749629 17.775 0.750029 17.498Z" stroke="#222222" stroke-width="1.5" stroke-linecap="round" stroke-linejoin="round"/>
</svg>
