<svg width="40" height="40" viewBox="0 0 40 40" fill="none" xmlns="http://www.w3.org/2000/svg">
<path opacity="0.16" fill-rule="evenodd" clip-rule="evenodd" d="M31.5201 32.5C34.3018 29.4732 36 25.4349 36 21C36 11.6112 28.3888 4 19 4C9.61116 4 2 11.6112 2 21C2 25.4349 3.69824 29.4732 6.47989 32.5C9.58707 29.119 14.0461 27 19 27C23.9539 27 28.4129 29.119 31.5201 32.5Z" fill="#F93749"/>
<path opacity="0.16" fill-rule="evenodd" clip-rule="evenodd" d="M6.53516 37H32.4623C29.6922 32.7838 24.9206 30 19.4987 30C14.0769 30 9.30527 32.7838 6.53516 37Z" fill="#F93749"/>
<path fill-rule="evenodd" clip-rule="evenodd" d="M19.0008 4.70078C9.99854 4.70078 2.70078 11.9985 2.70078 21.0008C2.70078 23.5832 3.3008 26.0234 4.36839 28.1916C4.53917 28.5384 4.39645 28.958 4.04962 29.1288C3.70279 29.2996 3.28318 29.1568 3.1124 28.81C1.95217 26.4537 1.30078 23.8023 1.30078 21.0008C1.30078 11.2253 9.22534 3.30078 19.0008 3.30078C28.7762 3.30078 36.7008 11.2253 36.7008 21.0008C36.7008 23.8023 36.0494 26.4537 34.8892 28.81C34.7184 29.1568 34.2988 29.2996 33.9519 29.1288C33.6051 28.958 33.4624 28.5384 33.6332 28.1916C34.7008 26.0234 35.3008 23.5832 35.3008 21.0008C35.3008 11.9985 28.003 4.70078 19.0008 4.70078Z" fill="#F93749"/>
<path fill-rule="evenodd" clip-rule="evenodd" d="M7.73863 35.5991C7.54206 35.6053 7.35077 35.5351 7.20503 35.4031C7.06268 35.2684 6.97927 35.0829 6.97303 34.887C6.96682 34.6919 7.03764 34.5022 7.17006 34.359C8.73351 32.7882 10.6 31.5517 12.6561 30.7246C14.7142 29.8967 16.9193 29.4963 19.1371 29.5477L19.1465 29.5479L19.156 29.5477C21.3724 29.4945 23.5764 29.8923 25.6344 30.7169C27.6903 31.5407 29.5576 32.7733 31.1231 34.34C31.2557 34.4832 31.3267 34.6729 31.3206 34.8682C31.3145 35.0653 31.2303 35.2519 31.0866 35.3869C30.9429 35.5219 30.7515 35.5943 30.5544 35.5882C30.3573 35.5821 30.1707 35.4979 30.0357 35.3542L30.0359 35.354L30.026 35.3443C28.5985 33.9269 26.8981 32.8141 25.0279 32.0732C23.1611 31.3337 21.1638 30.9802 19.1566 31.0339C17.1448 30.9808 15.1432 31.3363 13.2727 32.0789C11.3988 32.8228 9.69558 33.9396 8.2664 35.3617L8.26634 35.3617L8.26071 35.3675C8.12347 35.5097 7.93617 35.5928 7.73863 35.5991Z" fill="#F93749"/>
<path fill-rule="evenodd" clip-rule="evenodd" d="M17.8862 13.4405C19.139 13.1913 20.4377 13.3192 21.6178 13.808C22.798 14.2969 23.8067 15.1247 24.5164 16.1868C25.226 17.2489 25.6048 18.4974 25.6049 19.7747C25.6032 21.4872 24.9221 23.1291 23.7112 24.3401C22.5002 25.551 20.8583 26.2321 19.1458 26.2338C17.8685 26.2337 16.62 25.8549 15.5579 25.1453C14.4958 24.4356 13.668 23.4269 13.1791 22.2467C12.6903 21.0666 12.5624 19.7679 12.8116 18.5151C13.0608 17.2622 13.6759 16.1114 14.5792 15.2081C15.4825 14.3049 16.6333 13.6897 17.8862 13.4405ZM20.1163 14.8982C19.1517 14.7063 18.1519 14.8048 17.2433 15.1811C16.3347 15.5575 15.5581 16.1948 15.0117 17.0125C14.4654 17.8303 14.1737 18.7916 14.1737 19.7751C14.1737 21.0939 14.6976 22.3586 15.6301 23.2912C16.5626 24.2237 17.8274 24.7476 19.1462 24.7476C20.1297 24.7476 21.091 24.4559 21.9087 23.9096C22.7265 23.3632 23.3638 22.5866 23.7401 21.678C24.1165 20.7694 24.215 19.7696 24.0231 18.805C23.8312 17.8405 23.3577 16.9545 22.6623 16.259C21.9668 15.5636 21.0808 15.09 20.1163 14.8982Z" fill="#F93749"/>
</svg>
