<svg width="40" height="40" viewBox="0 0 40 40" fill="none" xmlns="http://www.w3.org/2000/svg">
<path opacity="0.16" d="M36 19.8621C36 27.931 27.9411 36 18 36C8.05887 36 0 28.5517 0 19.8621C0 8.89255 8.05887 0 18 0C27.9411 0 36 8.89255 36 19.8621Z" fill="#F93749"/>
<path d="M39.25 20C39.25 30.6315 30.6315 39.25 20 39.25C9.36852 39.25 0.75 30.6315 0.75 20C0.75 9.36852 9.36852 0.75 20 0.75C30.6315 0.75 39.25 9.36852 39.25 20Z" stroke="#F93749" stroke-width="1.5"/>
<path d="M24 15.5901C24.7866 12.3808 29.8002 11.7574 31 16" stroke="#F93749" stroke-width="1.5" stroke-linecap="round"/>
<path d="M16 15.5901C15.2134 12.3808 10.1998 11.7574 9 16" stroke="#F93749" stroke-width="1.5" stroke-linecap="round"/>
<path d="M12 22C12 22 13.2932 29 20.3478 29C27.4025 29 28 22 28 22" stroke="#F93749" stroke-width="1.5" stroke-linecap="round"/>
</svg>
