<svg width="176" height="205" viewBox="0 0 176 205" fill="none" xmlns="http://www.w3.org/2000/svg">
<path d="M119.051 32.157C119.051 27.1499 120.617 22.2683 123.53 18.1956L127.847 12.1581C131.836 6.58113 140.127 6.58113 144.115 12.1581L148.433 18.1956C151.346 22.2683 152.912 27.1499 152.912 32.157V106.288C152.912 107.827 152.557 109.345 151.874 110.725L150.457 113.586C148.77 116.993 145.297 119.149 141.495 119.149H135.981H130.468C126.666 119.149 123.193 116.993 121.506 113.586L120.089 110.725C119.406 109.345 119.051 107.827 119.051 106.288V32.157Z" fill="#D8D7F6"/>
<path d="M114.911 32.2461C114.911 27.3316 116.465 22.5429 119.351 18.5647L123.855 12.3548C127.569 7.23585 135.198 7.23585 138.911 12.3548L143.416 18.5647C146.302 22.5428 147.856 27.3316 147.856 32.2461V106.258C147.856 107.707 147.517 109.136 146.867 110.431L145.415 113.323C143.836 116.465 140.62 118.449 137.104 118.449H131.383H125.663C122.146 118.449 118.93 116.465 117.352 113.323L115.9 110.431C115.25 109.136 114.911 107.707 114.911 106.258V32.2461Z" stroke="#4D55E5" stroke-width="1.4"/>
<path d="M114.969 107.969H147.802" stroke="#4D55E5" stroke-width="1.4" stroke-linecap="round"/>
<path d="M136.729 33.0442C136.729 36.0084 134.334 38.4079 131.383 38.4079C128.432 38.4079 126.036 36.0084 126.036 33.0442C126.036 30.08 128.432 27.6805 131.383 27.6805C134.334 27.6805 136.729 30.08 136.729 33.0442Z" stroke="#4D55E5" stroke-width="1.4"/>
<path d="M150.973 67.2422C161.125 67.2422 169.354 75.472 169.354 85.6239V113.009C169.354 115.614 166.3 117.021 164.32 115.328L150.973 103.916V67.2422Z" fill="#D8D7F6"/>
<path d="M148.048 69.8976C157.221 70.2648 164.546 77.8179 164.546 87.0816V114.849C164.546 116.865 162.169 117.941 160.654 116.611L148.048 105.54V69.8976Z" stroke="#4D55E5" stroke-width="1.4"/>
<path d="M114.718 69.8972C105.277 70.2647 97.7362 78.0344 97.7362 87.5653V114.951C97.7362 116.958 100.09 118.042 101.615 116.738L114.718 105.535V69.8972Z" stroke="#4D55E5" stroke-width="1.4"/>
<ellipse cx="37.0562" cy="198.462" rx="37.0054" ry="37.11" fill="#D8D7F6"/>
<path d="M31.915 164.068C38.3553 161.824 45.2954 161.444 51.9409 162.972C58.5864 164.5 64.6689 167.873 69.4918 172.706C74.3148 177.54 77.6834 183.637 79.2115 190.302C80.7396 196.966 80.3655 203.927 78.1321 210.388C75.8986 216.849 71.8961 222.548 66.5832 226.834C61.2703 231.119 54.8616 233.817 48.0909 234.62C41.3203 235.422 34.461 234.297 28.2985 231.372C22.1359 228.447 16.9189 223.84 13.2451 218.08" stroke="#4D55E5" stroke-width="1.4" stroke-linecap="round"/>
<ellipse cx="79.3817" cy="190.457" rx="15.4794" ry="15.5231" fill="#D8D7F6"/>
<path d="M120.999 121.28C121.389 120.024 122.55 119.168 123.865 119.168H139.989L146.266 141.849C150.319 156.496 156.575 170.443 164.819 183.21L181.296 208.728H78.8555L96.6062 181.237C104.014 169.765 109.821 157.334 113.865 144.29L120.999 121.28Z" fill="#D8D7F6"/>
<path d="M139.98 119.168L145.849 140.376C150.173 156 156.846 170.876 165.64 184.495L181.287 208.728" stroke="#4D55E5" stroke-width="1.4" stroke-linecap="round"/>
<ellipse cx="170.327" cy="189.972" rx="15.4794" ry="15.5231" fill="#D8D7F6"/>
<path d="M162.324 190.43C162.257 188.25 162.671 186.081 163.535 184.079C164.4 182.078 165.695 180.292 167.326 178.85C168.958 177.408 170.887 176.345 172.976 175.737C175.064 175.129 177.261 174.991 179.409 175.332C181.556 175.673 183.603 176.485 185.402 177.711C187.201 178.937 188.708 180.546 189.816 182.423C190.923 184.301 191.604 186.4 191.81 188.572C192.015 190.744 191.74 192.935 191.004 194.987" stroke="#4D55E5" stroke-width="1.4" stroke-linecap="round"/>
<path d="M73.7975 198.799C72.5023 197.047 71.6087 195.029 71.1805 192.89C70.7524 190.751 70.8003 188.544 71.3208 186.425C71.8412 184.307 72.8215 182.33 74.1914 180.636C75.5613 178.942 77.2871 177.572 79.2456 176.623C81.2041 175.675 83.347 175.172 85.5215 175.15C87.696 175.128 89.8486 175.587 91.8258 176.496C93.803 177.404 95.556 178.739 96.9598 180.405C98.3635 182.072 99.3834 184.028 99.9464 186.135" stroke="#4D55E5" stroke-width="1.4" stroke-linecap="round" stroke-linejoin="round"/>
</svg>
