<svg width="24" height="24" viewBox="0 0 24 24" fill="none" xmlns="http://www.w3.org/2000/svg">
<path fill-rule="evenodd" clip-rule="evenodd" d="M20.1571 8.00571L19.5692 6.99429C19.0718 6.13846 17.9696 5.84323 17.1053 6.33429V6.33429C16.6938 6.5746 16.2028 6.64278 15.7406 6.52379C15.2784 6.4048 14.8829 6.10842 14.6413 5.7C14.4859 5.4404 14.4024 5.14472 14.3992 4.84286V4.84286C14.4133 4.35889 14.2291 3.88991 13.8887 3.54275C13.5483 3.19558 13.0807 2.9998 12.5923 3H11.4079C10.9295 2.99999 10.4708 3.18901 10.1333 3.52521C9.7958 3.86142 9.60736 4.3171 9.60966 4.79143V4.79143C9.59548 5.77075 8.79064 6.55724 7.80276 6.55714C7.49829 6.55401 7.20006 6.47122 6.93822 6.31714V6.31714C6.07383 5.82608 4.97163 6.12132 4.47427 6.97714L3.84315 8.00571C3.3464 8.86047 3.64013 9.95254 4.50021 10.4486V10.4486C5.05927 10.7686 5.40366 11.36 5.40366 12C5.40366 12.64 5.05927 13.2314 4.50021 13.5514V13.5514C3.64122 14.0441 3.34717 15.1335 3.84315 15.9857V15.9857L4.43969 17.0057C4.67272 17.4226 5.06371 17.7302 5.52613 17.8605C5.98856 17.9908 6.48429 17.9331 6.90364 17.7V17.7C7.31588 17.4615 7.80713 17.3962 8.26819 17.5185C8.72926 17.6408 9.12194 17.9407 9.35894 18.3514C9.51435 18.611 9.59785 18.9067 9.60101 19.2086V19.2086C9.60101 20.198 10.41 21 11.4079 21H12.5923C13.5869 21 14.3945 20.2032 14.3992 19.2171V19.2171C14.3969 18.7413 14.5865 18.2843 14.9259 17.9479C15.2653 17.6114 15.7262 17.4234 16.2061 17.4257C16.5099 17.4338 16.8069 17.5162 17.0707 17.6657V17.6657C17.9328 18.1582 19.0343 17.867 19.5346 17.0143V17.0143L20.1571 15.9857C20.398 15.5757 20.4642 15.0874 20.3408 14.6288C20.2175 14.1703 19.9149 13.7795 19.5 13.5429V13.5429C19.0852 13.3062 18.7826 12.9154 18.6592 12.4569C18.5359 11.9984 18.602 11.51 18.843 11.1C18.9997 10.8288 19.2265 10.6039 19.5 10.4486V10.4486C20.355 9.95281 20.648 8.86712 20.1571 8.01429V8.01429V8.00571Z" stroke="#222222" stroke-width="1.5" stroke-linecap="round" stroke-linejoin="round"/>
<circle cx="12.0016" cy="12.0016" r="2.4" stroke="#222222" stroke-width="1.5" stroke-linecap="round" stroke-linejoin="round"/>
</svg>
