<svg width="40" height="40" viewBox="0 0 40 40" fill="none" xmlns="http://www.w3.org/2000/svg">
<path fill-rule="evenodd" clip-rule="evenodd" d="M15.6568 4.55546C15.3319 4.76865 15.1051 5.07633 14.9945 5.38465C14.8838 5.69268 14.8648 5.98871 14.8478 6.26175C14.8138 6.80788 14.8061 7.29678 14.5299 7.8552C14.2538 8.41367 13.6903 9.07594 12.3947 9.82397C11.0991 10.572 10.2409 10.7288 9.61919 10.6887C8.99748 10.6473 8.57337 10.4128 8.08343 10.1691C7.83847 10.0471 7.56945 9.92095 7.24715 9.86248C6.92484 9.804 6.54524 9.83952 6.19823 10.0131C5.5042 10.3626 4.9357 11.0933 4.12618 12.4955C3.31665 13.8976 2.95929 14.7578 3.00367 15.5336C3.02586 15.9213 3.18832 16.276 3.39993 16.526C3.61154 16.7761 3.8533 16.9367 4.08128 17.0882C4.53722 17.3908 4.95351 17.64 5.29907 18.1584C5.64463 18.6768 5.93795 19.4985 5.93794 20.9944C5.93794 22.4905 5.64853 23.3183 5.30297 23.8367C4.9574 24.355 4.53789 24.6062 4.08194 24.9087C3.85396 25.0597 3.61355 25.2134 3.40194 25.4633C3.19032 25.7133 3.03082 26.0746 3.00864 26.4625C2.96425 27.2383 3.31036 28.0956 4.11988 29.4978C4.9294 30.8999 5.505 31.6264 6.19903 31.9758C6.54604 32.1508 6.92661 32.1996 7.2489 32.1416C7.57121 32.0831 7.83195 31.9486 8.07691 31.8266C8.56686 31.583 8.99957 31.3411 9.62127 31.301C10.243 31.2596 11.0998 31.4204 12.3954 32.1684C13.691 32.9164 14.2574 33.5787 14.5336 34.1372C14.8097 34.6956 14.8166 35.1913 14.8506 35.7374C14.8676 36.0105 14.8812 36.3037 14.9919 36.612C15.1026 36.9205 15.3267 37.2276 15.6515 37.4407C16.3012 37.8671 17.2268 38 18.8458 38C20.4649 38 21.3805 37.8711 22.0301 37.4447C22.355 37.2315 22.5794 36.9151 22.6901 36.6068C22.8008 36.2987 22.8221 36.0113 22.8391 35.7383C22.8731 35.1922 22.8808 34.7033 23.157 34.1448C23.4331 33.5864 23.9943 32.9154 25.2899 32.1675C26.5855 31.4194 27.4437 31.2627 28.0654 31.3027C28.6871 31.3442 29.1222 31.585 29.6121 31.8287C29.8571 31.9502 30.1174 32.079 30.4397 32.1375C30.762 32.196 31.148 32.1514 31.495 31.9759C32.189 31.6265 32.7575 30.8957 33.5671 29.4936C34.3766 28.0914 34.7253 27.2337 34.6809 26.4579C34.6587 26.0702 34.4962 25.7154 34.2846 25.4654C34.073 25.2154 33.8313 25.0547 33.6033 24.9032C33.1473 24.6007 32.731 24.3513 32.3855 23.833C32.0399 23.3146 31.7466 22.493 31.7466 20.997C31.7466 19.501 32.0384 18.6818 32.3839 18.1635C32.7295 17.6451 33.149 17.3938 33.6049 17.0913C33.8329 16.9403 34.0797 16.7755 34.2913 16.5258C34.5029 16.2757 34.6561 15.9255 34.6782 15.5376C34.7226 14.7618 34.3765 13.9045 33.567 12.5024C32.7575 11.1002 32.1882 10.3627 31.4942 10.0132C31.1472 9.83874 30.7603 9.80053 30.438 9.85854C30.1157 9.91702 29.8526 10.0432 29.6076 10.1647C29.1177 10.4083 28.6937 10.6479 28.072 10.688C27.4503 10.7294 26.5935 10.5687 25.2979 9.8206C24.0023 9.07257 23.4358 8.4103 23.1597 7.85183C22.8835 7.2934 22.8789 6.80643 22.8449 6.26034C22.8279 5.9873 22.8057 5.69629 22.695 5.38802C22.5843 5.07998 22.3579 4.76373 22.033 4.55054C21.3834 4.12417 20.4601 4 18.8411 4C17.222 4 16.3064 4.12895 15.6568 4.55532L15.6568 4.55546ZM16.3282 5.56718C16.5687 5.40925 17.3062 5.21954 18.8419 5.21954C20.3776 5.21949 21.1247 5.40981 21.3652 5.56774C21.4854 5.64647 21.5098 5.692 21.5479 5.7979C21.586 5.90381 21.6113 6.08748 21.6268 6.33538C21.6576 6.831 21.6645 7.58166 22.0672 8.39605C22.4699 9.21039 23.2509 10.0486 24.6874 10.878C26.1239 11.7073 27.2404 11.9646 28.147 11.9061C29.0536 11.8477 29.7071 11.4784 30.1517 11.2572C30.3741 11.1467 30.5457 11.0768 30.6566 11.057C30.7676 11.0386 30.819 11.034 30.9475 11.0985C31.2044 11.2278 31.7427 11.7795 32.5105 13.1095C33.2784 14.4395 33.4827 15.1732 33.4663 15.4604C33.4581 15.604 33.4282 15.6556 33.3554 15.7417C33.2825 15.8278 33.1404 15.9411 32.9335 16.0784C32.5197 16.3528 31.8773 16.7273 31.3734 17.4832C30.8695 18.2392 30.5272 19.3377 30.5272 20.9964C30.5272 22.6552 30.8698 23.747 31.3737 24.503C31.8776 25.259 32.5216 25.6441 32.9354 25.9187C33.1423 26.0559 33.287 26.166 33.3599 26.2521C33.4327 26.3382 33.4545 26.388 33.4627 26.5316C33.4792 26.8189 33.2799 27.5605 32.512 28.8905C31.7442 30.2205 31.2015 30.7639 30.9446 30.8933C30.8161 30.9577 30.7682 30.9531 30.6573 30.9347C30.5463 30.9163 30.3702 30.8467 30.1478 30.7362C29.7032 30.5151 29.0563 30.1477 28.1496 30.0892C27.243 30.0307 26.1198 30.2909 24.6832 31.1205C23.2467 31.9499 22.4641 32.7869 22.0614 33.6013C21.6587 34.4156 21.658 35.1678 21.6271 35.6635C21.6117 35.9112 21.5848 36.0907 21.5467 36.197C21.5085 36.3034 21.4853 36.3435 21.365 36.4227C21.1245 36.5806 20.3807 36.7814 18.8449 36.7814C17.3092 36.7814 16.5686 36.5802 16.3281 36.4223C16.2078 36.3431 16.1747 36.3003 16.1366 36.1944C16.0986 36.0885 16.0755 35.9135 16.0601 35.6656C16.0293 35.1699 16.0224 34.4194 15.6197 33.6049C15.217 32.7905 14.4424 31.9412 13.0059 31.1119C11.5693 30.2825 10.4465 30.0363 9.53988 30.0947C8.63326 30.1532 7.9798 30.5225 7.53514 30.7436C7.31281 30.8541 7.14989 30.9218 7.03892 30.9416C6.92796 30.96 6.87421 30.9554 6.74575 30.89C6.48882 30.7606 5.94422 30.2199 5.17637 28.8899C4.4085 27.5599 4.21054 26.8153 4.22697 26.5281C4.23517 26.3845 4.25865 26.3439 4.3315 26.2578C4.40436 26.1717 4.5465 26.0584 4.7534 25.9212C5.16721 25.6468 5.81592 25.2613 6.31986 24.5054C6.82378 23.7494 7.15969 22.6618 7.15969 21.003C7.15969 19.3443 6.8235 18.2414 6.31956 17.4855C5.81562 16.7295 5.16528 16.3553 4.75147 16.0807C4.54456 15.9435 4.40624 15.8224 4.33339 15.7368C4.26054 15.6507 4.23237 15.6116 4.22416 15.4679C4.20772 15.1806 4.40699 14.439 5.17485 13.109C5.94271 11.779 6.48541 11.2357 6.74234 11.1063C6.8708 11.0419 6.92501 11.0353 7.03598 11.0556C7.14693 11.074 7.3144 11.1459 7.53673 11.2564C7.98139 11.4774 8.62828 11.8449 9.53491 11.9033C10.4415 11.9618 11.5671 11.71 13.0036 10.8808C14.4402 10.0515 15.2204 9.2058 15.6231 8.39141C16.0258 7.57707 16.0289 6.83353 16.0598 6.33791C16.0752 6.09019 16.1021 5.91018 16.1402 5.80423C16.1784 5.69833 16.208 5.64665 16.3282 5.56746L16.3282 5.56718Z" fill="#F93749"/>
<path fill-rule="evenodd" clip-rule="evenodd" d="M18.8443 14.3008C15.151 14.3008 12.1445 17.3073 12.1445 21.0006C12.1445 24.6939 15.151 27.7004 18.8443 27.7004C22.5377 27.7004 25.5442 24.6939 25.5442 21.0006C25.5442 17.3073 22.5377 14.3008 18.8443 14.3008ZM18.8443 15.5148C21.8793 15.5148 24.3301 17.9657 24.3301 21.0006C24.3301 24.0355 21.8793 26.4773 18.8443 26.4773C15.8094 26.4773 13.3676 24.0355 13.3676 21.0006C13.3676 17.9657 15.8094 15.5148 18.8443 15.5148Z" fill="#F93749"/>
<path fill-rule="evenodd" clip-rule="evenodd" d="M14.9361 6.26247C15.037 5.98136 15.2438 5.70082 15.54 5.50645C16.1323 5.1177 16.9671 5 18.4433 5C19.9195 5 20.7613 5.11322 21.3536 5.50197C21.6498 5.69634 21.8563 5.98469 21.9572 6.26555C22.0581 6.54661 22.0784 6.81195 22.0939 7.0609C22.0967 7.10495 22.0992 7.14857 22.1017 7.19186C22.1276 7.63787 22.1514 8.04785 22.3809 8.51196C22.6326 9.02116 23.1491 9.62499 24.3304 10.307C25.5117 10.9891 26.2929 11.1357 26.8598 11.0979C27.3763 11.0645 27.7431 10.8802 28.1422 10.6797C28.1811 10.6602 28.2203 10.6405 28.2599 10.6208C28.4833 10.5099 28.7231 10.3949 29.017 10.3416C29.3108 10.2887 29.6636 10.3236 29.98 10.4827C30.6128 10.8013 31.1318 11.4737 31.8699 12.7521C32.608 14.0306 32.9236 14.8123 32.8831 15.5196C32.8629 15.8733 32.7233 16.1926 32.5303 16.4205C32.3374 16.6483 32.1124 16.7985 31.9045 16.9362C31.8715 16.9581 31.8387 16.9797 31.8061 17.0012C31.4284 17.25 31.0813 17.4787 30.7912 17.9138C30.4761 18.3864 30.2101 19.1332 30.2101 20.4972C30.2101 21.8613 30.4776 22.6104 30.7927 23.083C31.0828 23.5183 31.4278 23.7455 31.8052 23.9942C31.8376 24.0155 31.8702 24.037 31.903 24.0588L31.9032 24.0589C32.111 24.1971 32.3313 24.3435 32.5242 24.5714C32.7172 24.7993 32.8653 25.1228 32.8855 25.4763C32.926 26.1836 32.6081 26.9657 31.87 28.2441C31.1319 29.5226 30.6135 30.1888 29.9808 30.5075C29.6644 30.6674 29.3124 30.7081 29.0186 30.6548C28.7247 30.6015 28.4874 30.484 28.264 30.3732C28.2293 30.356 28.195 30.3387 28.1608 30.3216C27.7547 30.118 27.3766 29.9285 26.8537 29.8937C26.2869 29.8571 25.5044 30 24.3231 30.6821C23.1418 31.3641 22.6302 31.9758 22.3784 32.485C22.1467 32.9536 22.1222 33.3685 22.0957 33.8198C22.0934 33.8588 22.091 33.8982 22.0886 33.9378C22.0731 34.1868 22.0537 34.4489 21.9527 34.7297C21.8518 35.0108 21.6472 35.2993 21.351 35.4937C20.7587 35.8824 19.9239 36 18.4477 36C16.9715 36 16.1275 35.8788 15.5352 35.4901C15.239 35.2957 15.0347 35.0157 14.9338 34.7345C14.8375 34.4664 14.8218 34.2107 14.8071 33.9716C14.8064 33.9601 14.8057 33.9485 14.805 33.937C14.8024 33.8956 14.8 33.8545 14.7976 33.8136C14.7712 33.3635 14.7467 32.9448 14.5159 32.478C14.2641 31.9688 13.7477 31.365 12.5664 30.683C11.3851 30.0009 10.6039 29.8543 10.037 29.8921C9.51754 29.9256 9.14278 30.1136 8.73993 30.3158C8.70322 30.3342 8.66627 30.3527 8.62895 30.3713C8.61963 30.3759 8.61029 30.3806 8.60091 30.3853C8.38567 30.4926 8.1556 30.6074 7.874 30.6585C7.58014 30.7114 7.23315 30.6669 6.91676 30.5073C6.28397 30.1887 5.75916 29.5264 5.02107 28.248C4.28297 26.9696 3.96741 26.1879 4.00788 25.4805C4.0281 25.1269 4.17353 24.7974 4.36648 24.5695C4.55063 24.352 4.75871 24.2144 4.95802 24.0826C4.96753 24.0763 4.97701 24.0701 4.98648 24.0638C5.01956 24.0418 5.05242 24.0202 5.08506 23.9987C5.46263 23.75 5.80976 23.5214 6.09976 23.0864C6.41484 22.6137 6.67871 21.859 6.67871 20.4949C6.67872 19.131 6.41128 18.3818 6.09621 17.9091C5.80605 17.4739 5.46119 17.2467 5.08378 16.9981C5.05138 16.9767 5.01874 16.9552 4.98587 16.9334L4.98566 16.9333C4.77786 16.7951 4.55752 16.6487 4.36465 16.4208C4.1717 16.1928 4.02358 15.8694 4.00334 15.5159C3.96288 14.8086 4.28871 14.0243 5.02681 12.7459C5.7649 11.4674 6.28324 10.8012 6.91603 10.4825C7.23243 10.3243 7.57853 10.2919 7.8724 10.3452C8.16626 10.3985 8.41154 10.5135 8.63489 10.6248C8.66838 10.6414 8.70152 10.658 8.73443 10.6745C9.14058 10.8781 9.51078 11.0636 10.0351 11.0985C10.602 11.1351 11.3845 10.9921 12.5658 10.3101C13.747 9.62806 14.2608 9.02423 14.5126 8.51504C14.7443 8.04644 14.7687 7.63155 14.7953 7.18025C14.7976 7.14119 14.7999 7.10185 14.8024 7.06218C14.8179 6.81323 14.8352 6.54333 14.9361 6.26247ZM19 27C21.7614 27 24 24.7614 24 22C24 19.2386 21.7614 17 19 17C16.2386 17 14 19.2386 14 22C14 24.7614 16.2386 27 19 27Z" fill="#F93749" fill-opacity="0.1"/>
</svg>
