<svg width="22" height="22" viewBox="0 0 22 22" fill="none" xmlns="http://www.w3.org/2000/svg">
<path fill-rule="evenodd" clip-rule="evenodd" d="M11.7502 1.96532L14.1877 6.88319C14.3098 7.13125 14.5455 7.30436 14.8192 7.34447L20.2763 8.13509C20.4973 8.16464 20.6962 8.28076 20.832 8.45809C21.0867 8.79059 21.0478 9.26137 20.7425 9.54743L16.7873 13.3833C16.5863 13.5733 16.4968 13.852 16.5495 14.1233L17.4967 19.5362C17.563 19.9848 17.2578 20.4049 16.8105 20.4778C16.6252 20.5063 16.4358 20.4767 16.2674 20.3933L11.4071 17.8378C11.1629 17.7048 10.8703 17.7048 10.6261 17.8378L5.72998 20.4071C5.32056 20.6161 4.81958 20.4609 4.59646 20.0587C4.51121 19.8962 4.48174 19.7114 4.51121 19.5309L5.45844 14.118C5.5058 13.8478 5.41634 13.5702 5.22058 13.3791L1.24431 9.54426C0.920147 9.22126 0.918042 8.69559 1.24115 8.37048C1.24221 8.36942 1.24326 8.36731 1.24431 8.36626C1.37798 8.24487 1.54216 8.16359 1.72003 8.13192L7.17819 7.3413C7.45078 7.29803 7.68548 7.12702 7.80968 6.87897L10.2451 1.96532C10.343 1.76582 10.5167 1.61277 10.7271 1.5431C10.9387 1.47238 11.1702 1.48927 11.3692 1.58954C11.5323 1.67082 11.666 1.80277 11.7502 1.96532Z" stroke="#222222" stroke-width="1.5" stroke-linecap="round" stroke-linejoin="round"/>
</svg>
