<svg width="36" height="37" viewBox="0 0 36 37" fill="none" xmlns="http://www.w3.org/2000/svg">
<path d="M16.9789 4.33594L19.9211 13.857H29.4421L21.7394 19.7414L24.6816 29.2624L16.9789 23.3781L9.27617 29.2624L12.2183 19.7414L4.51562 13.857H14.0367L16.9789 4.33594Z" fill="#F93749" fill-opacity="0.16"/>
<path d="M16.7614 4.60689C17.0008 3.86984 18.0436 3.86984 18.2831 4.60689L20.948 12.8087C21.0685 13.1796 21.4141 13.4306 21.804 13.4306L30.4279 13.4306C31.2029 13.4306 31.5251 14.4223 30.8981 14.8778L23.9212 19.9469C23.6058 20.1761 23.4738 20.5823 23.5943 20.9531L24.26 20.7368L23.5943 20.9531L26.2592 29.155C26.4987 29.892 25.6551 30.5049 25.0281 30.0494L18.0512 24.9804C17.7358 24.7512 17.3086 24.7512 16.9932 24.9804L10.0163 30.0494C9.38931 30.5049 8.54573 29.892 8.78521 29.155L11.4502 20.9531C11.5706 20.5823 11.4387 20.1761 11.1232 19.9469L4.1463 14.8778C3.51933 14.4223 3.84155 13.4306 4.61652 13.4306L13.2405 13.4306C13.6304 13.4306 13.9759 13.1796 14.0964 12.8087L16.7614 4.60689Z" stroke="#F93749" stroke-width="1.4"/>
<path d="M6.97656 3.63672L10.4917 8.72754" stroke="#F93749" stroke-width="1.4" stroke-linecap="round"/>
<path d="M6.73438 21.8164L1.0375 23.7558" stroke="#F93749" stroke-width="1.4" stroke-linecap="round"/>
<path d="M29.1562 21.8164L35.2168 23.877" stroke="#F93749" stroke-width="1.4" stroke-linecap="round"/>
<path d="M17.5234 29.6953V35.9982" stroke="#F93749" stroke-width="1.4" stroke-linecap="round"/>
<path d="M28.3086 3.63672L24.3087 8.72754" stroke="#F93749" stroke-width="1.4" stroke-linecap="round"/>
</svg>
