<svg width="48" height="48" viewBox="0 0 48 48" fill="none" xmlns="http://www.w3.org/2000/svg">
<path opacity="0.16" fill-rule="evenodd" clip-rule="evenodd" d="M5.25 31.3586V31.5L11.3249 30.3551V26.6705C11.3249 21.0522 12.9837 14.8111 15.75 10.5C15.6758 10.5186 15.5998 10.5392 15.5239 10.5597C15.2916 10.6212 15.0619 10.6888 14.8348 10.7624C14.6075 11.1291 14.3876 11.5081 14.1768 11.9004C10.0733 14.2685 7.29812 18.7493 7.15503 23.838C7.1515 23.9779 7.14973 24.1196 7.14973 24.2632V31.0003L5.25 31.3586Z" fill="#F93749"/>
<path opacity="0.16" fill-rule="evenodd" clip-rule="evenodd" d="M37.4247 30.3553L43.4997 31.5002L40.8499 31.0005V24.2634C40.8499 24.1198 40.8482 23.9781 40.8446 23.8382C40.7016 18.7501 37.927 14.2697 33.8242 11.9014C36.0923 16.0995 37.4247 21.6352 37.4247 26.6707V30.3553Z" fill="#F93749"/>
<path opacity="0.16" d="M37.5 26.7899V30.75L30 29.625C25.9323 28.8614 21.7676 28.8614 17.7 29.625L10.5 30.75V26.7899C10.5 20.7516 12.2857 14.0439 15.2637 9.4104C18.0858 8.66488 19.8601 8.19392 21.0144 7.8893C22.975 7.37023 25.025 7.37023 26.9856 7.8893C28.14 8.19392 29.9142 8.66488 32.7363 9.4104C35.7143 14.0439 37.5 20.7516 37.5 26.7899Z" fill="#F93749"/>
<path d="M21.2057 8.61447L21.2063 8.61432C23.0411 8.12856 24.9589 8.12856 26.7937 8.61432L26.7943 8.61447C27.3005 8.74807 27.9251 8.91342 28.7047 9.11982C29.6436 9.36836 30.8072 9.67644 32.2601 10.0603C35.0572 14.5471 36.75 20.98 36.75 26.7899V29.8791L30.1248 28.8853C25.9737 28.1079 21.7239 28.108 17.5729 28.8857L11.25 29.8737V26.7899C11.25 20.98 12.9428 14.5471 15.7399 10.0603C17.1927 9.67645 18.3564 9.36838 19.2952 9.11984C20.0749 8.91343 20.6995 8.74808 21.2057 8.61447Z" stroke="#F93749" stroke-width="1.5"/>
<path opacity="0.16" fill-rule="evenodd" clip-rule="evenodd" d="M45.75 41.1182V41.797C45.75 42.8849 44.8081 43.6923 43.8117 43.4599L30.08 40.8513C26.0586 40.088 21.9414 40.088 17.92 40.8513L6.02537 43.1109C5.59974 42.7517 5.31818 42.173 5.31818 41.5036V39.9611C5.31818 37.0589 5.805 34.1861 6.75 31.5L4.35886 31.9107L3.80659 33.1643C2.77977 35.4967 2.25 38.004 2.25 40.5388V40.4807C2.25 37.8961 2.73693 35.3396 3.6807 32.9614L4.1883 31.6831L10.6537 30.4529L17.92 29.0725C21.9414 28.3092 26.0586 28.3092 30.08 29.0725L37.3463 30.4529L41.4284 31.2296L41.8051 32.4931C42.681 35.3534 43.1329 38.4307 43.1329 41.5387V42.5503L43.9511 42.7116C44.8759 42.9343 45.75 42.1606 45.75 41.1182ZM3.90985 43.4985C3.19095 43.4691 2.56344 43.0093 2.33844 42.3591C2.56559 43.0544 3.2016 43.5303 3.90985 43.4985Z" fill="#F93749"/>
<path d="M3.75 31.5L10.3584 30.3406L17.7855 29.0396C21.8958 28.3201 26.1042 28.3201 30.2145 29.0396L37.6416 30.3406L44.25 31.5" stroke="#F93749" stroke-width="1.4"/>
<path d="M43.8144 31.5234V31.3727C43.8144 24.2193 43.8164 24.0087 43.8106 23.7985L43.8144 31.5234ZM43.8144 31.5234L43.8726 31.6623M43.8144 31.5234L43.8726 31.6623M43.8726 31.6623C44.7091 33.6605 45.1702 35.0182 45.4287 36.3623M43.8726 31.6623L45.4287 36.3623M32.6626 10.1547L32.6626 10.1547C32.5487 10.1272 31.7003 9.91156 30.6776 9.65161C29.0477 9.23734 26.9752 8.71057 26.7276 8.65339L26.1464 8.51916V7.92262V7.15599C26.1464 6.09812 25.2958 5.25 24.2683 5.25H23.7953C22.7677 5.25 21.9172 6.09812 21.9172 7.15599V7.92262V8.51924L21.3359 8.65341L21.3353 8.65354L21.3336 8.65395L21.3274 8.65542L21.307 8.66038L21.2406 8.67678L21.0216 8.73149C20.8409 8.77682 20.5953 8.83868 20.3064 8.91158C19.7287 9.05736 18.9792 9.24701 18.2319 9.43631C16.7356 9.81529 15.2529 10.1917 15.1723 10.2124L15.1693 10.2132C8.85364 11.8151 4.24894 17.534 4.24894 24.1644V31.3729V31.5235L4.19079 31.6625C3.1325 34.1909 2.30055 37.3398 2.25221 39.6977C2.22766 40.8956 2.40947 41.7547 2.7355 42.242C2.88618 42.4672 3.06132 42.6045 3.26869 42.6787C3.48339 42.7555 3.79271 42.7856 4.23804 42.6906L4.24975 42.6881L4.26154 42.686C6.63655 42.258 8.70067 41.8744 10.5216 41.5359C17.0883 40.3155 20.492 39.6829 23.9074 39.677C27.4148 39.671 30.9603 40.3254 37.9837 41.6217C39.6988 41.9383 41.6214 42.2931 43.8015 42.686L43.8136 42.6882L43.8257 42.6907C43.9359 42.7144 44.047 42.7259 44.1575 42.7259L32.6626 10.1547ZM32.6626 10.1547C39.2517 11.7468 43.6247 17.4818 43.8087 23.7303L32.6626 10.1547ZM45.4287 36.3623C45.6875 37.708 45.75 39.0739 45.75 41.1037M45.4287 36.3623L45.75 41.1037M45.75 41.1037C45.75 42.0342 44.9981 42.7257 44.1576 42.7259L45.75 41.1037Z" stroke="#F93749" stroke-width="1.5"/>
<path d="M34.3674 26.2717C34.4549 25.0208 34.2911 23.7448 33.8809 22.4785" stroke="#F93749" stroke-width="1.5" stroke-linecap="round"/>
<path d="M32.8649 19.5537C32.7322 19.0208 32.5715 18.4801 32.3867 17.9463" stroke="#F93749" stroke-width="1.5" stroke-linecap="round"/>
</svg>
