<svg width="24" height="24" viewBox="0 0 24 24" fill="none" stroke="none" xmlns="http://www.w3.org/2000/svg">
    <path d="M8.99149 19.8943V17.1342C8.99148 16.4322 9.56381 15.8617 10.2729 15.857H12.8704C13.5829 15.857 14.1605 16.4288 14.1605 17.1342V17.1342V19.9028C14.1603 20.4989 14.6408 20.986 15.2427 21H16.9744C18.7006 21 20.1 19.6146 20.1 17.9056V17.9056V10.0541C20.0908 9.38174 19.7719 8.75041 19.2342 8.33973L13.3119 3.61677C12.2744 2.79441 10.7996 2.79441 9.76208 3.61677L3.86582 8.3483C3.32603 8.75732 3.00665 9.3897 3 10.0626V17.9056C3 19.6146 4.39939 21 6.12562 21H7.85727C8.47412 21 8.97418 20.5049 8.97418 19.8943V19.8943" stroke-width="1.4" stroke-linecap="round" stroke-linejoin="round" />
</svg>