<svg width="48" height="48" viewBox="0 0 48 48" fill="none" xmlns="http://www.w3.org/2000/svg">
<g clip-path="url(#clip0_4489_79600)">
<path opacity="0.16" fill-rule="evenodd" clip-rule="evenodd" d="M16 4H28L31.4512 7.45119C28.7772 9.13203 27 12.1085 27 15.5C27 20.7467 31.2533 25 36.5 25C37.736 25 38.9169 24.764 40 24.3345V36C40 37.0609 39.5786 38.0783 38.8284 38.8284C38.0783 39.5786 37.0609 40 36 40H16C14.9391 40 13.9217 39.5786 13.1716 38.8284C12.4214 38.0783 12 37.0609 12 36V8C12 6.93913 12.4214 5.92172 13.1716 5.17157C13.9217 4.42143 14.9391 4 16 4Z" fill="#F93749"/>
<path fill-rule="evenodd" clip-rule="evenodd" d="M12 3.25C10.7402 3.25 9.53204 3.75044 8.64124 4.64124C7.75044 5.53204 7.25 6.74022 7.25 8V40C7.25 41.2598 7.75044 42.468 8.64124 43.3588C9.53204 44.2496 10.7402 44.75 12 44.75H36C37.2598 44.75 38.468 44.2496 39.3588 43.3588C40.2496 42.468 40.75 41.2598 40.75 40V23.9986C40.2716 24.2383 39.7702 24.4388 39.25 24.5959V40C39.25 40.862 38.9076 41.6886 38.2981 42.2981C37.6886 42.9076 36.862 43.25 36 43.25H12C11.138 43.25 10.3114 42.9076 9.7019 42.2981C9.09241 41.6886 8.75 40.862 8.75 40V8C8.75 7.13805 9.09241 6.3114 9.7019 5.7019C10.3114 5.09241 11.138 4.75 12 4.75H27.6893L30.8221 7.88276C31.2323 7.57652 31.668 7.30263 32.1255 7.06487L28.5303 3.46967C28.3897 3.32902 28.1989 3.25 28 3.25H12Z" fill="#F93749"/>
<circle opacity="0.16" cx="39" cy="13" r="7" fill="#F93749"/>
<path d="M27 26H16" stroke="#F93749" stroke-width="1.5" stroke-linecap="round" stroke-linejoin="round"/>
<path d="M27 34H16" stroke="#F93749" stroke-width="1.5" stroke-linecap="round" stroke-linejoin="round"/>
<path d="M20 18H18H16" stroke="#F93749" stroke-width="1.5" stroke-linecap="round" stroke-linejoin="round"/>
<path d="M34.5938 28.7344L30.3511 24.4917L34.5937 20.2491" stroke="#F93749" stroke-width="1.5" stroke-linecap="round" stroke-linejoin="round"/>
<path d="M28.593 19.1801C27.7502 17.4202 27.5021 15.4342 27.8861 13.5211C28.2702 11.608 29.2656 9.87152 30.7223 8.57334C32.179 7.27515 34.0182 6.48556 35.9628 6.32354C37.9073 6.16151 39.8518 6.63583 41.5033 7.67503C43.1548 8.71423 44.4238 10.262 45.1192 12.0852C45.8146 13.9083 45.8986 15.9081 45.3586 17.7831C44.8186 19.6582 43.6838 21.3069 42.1253 22.481C40.5668 23.6551 38.6689 24.2908 36.7177 24.2925L30.3537 24.4904" stroke="#F93749" stroke-width="1.5" stroke-linecap="round" stroke-linejoin="round"/>
<path d="M36 10V16L40 18" stroke="#F93749" stroke-width="1.5" stroke-linecap="round" stroke-linejoin="round"/>
</g>
<defs>
<clipPath id="clip0_4489_79600">
<rect width="48" height="48" fill="white"/>
</clipPath>
</defs>
</svg>
