<svg width="16" height="16" viewBox="0 0 16 16" fill="none" xmlns="http://www.w3.org/2000/svg">
<path d="M2 5.33333H14V14C14 15.1046 13.1046 16 12 16H4C2.89543 16 2 15.1046 2 14V5.33333ZM6 12.6667V8H4.66667V12.6667H6ZM8.66667 12.6667V8H7.33333V12.6667H8.66667ZM11.3333 12.6667V8H10V12.6667H11.3333ZM15.3333 2.66667C15.7015 2.66667 16 2.96514 16 3.33333C16 3.70152 15.7015 4 15.3333 4H0.666667C0.298477 4 0 3.70152 0 3.33333C0 2.96514 0.298477 2.66667 0.666667 2.66667H4.66667V0.666667C4.66667 0.298477 4.96514 0 5.33333 0H10.6667C11.0349 0 11.3333 0.298477 11.3333 0.666667V2.66667H15.3333ZM6 1.33333V2.66667H10V1.33333H6Z" fill="#717171"/>
</svg>
