<svg width="16" height="16" viewBox="0 0 16 16" fill="none" xmlns="http://www.w3.org/2000/svg">
    <path d="M13.4737 4.21053V6.72842C13.4737 6.72842 11.7979 6.73684 11.7895 6.72842V4.21053H9.26316C9.26316 4.21053 9.27158 2.53474 9.26316 2.52632H11.7895V0H13.4737V2.52632H16V4.21053H13.4737ZM10.9474 7.57895V5.05263H8.42105V2.52632H1.68421C0.757895 2.52632 0 3.28421 0 4.21053V14.3158C0 15.2421 0.757895 16 1.68421 16H11.7895C12.7158 16 13.4737 15.2421 13.4737 14.3158V7.57895H10.9474ZM1.68421 14.3158L4.21053 10.9474L5.89474 13.4737L8.42105 10.1053L11.7895 14.3158H1.68421Z" />
</svg>