<svg width="24" height="24" viewBox="0 0 24 24" fill="none" stroke="none" xmlns="http://www.w3.org/2000/svg" stroke-width="0.02">
    <path fill-rule="evenodd" clip-rule="evenodd" d="M11.8637 3.78018C6.84703 3.78018 2.78018 7.84703 2.78018 12.8637C2.78018 14.3028 3.11456 15.6627 3.7095 16.871C3.80467 17.0642 3.72513 17.2981 3.53185 17.3933C3.33857 17.4884 3.10474 17.4089 3.00956 17.2156C2.363 15.9025 2 14.425 2 12.8637C2 7.41615 6.41615 3 11.8637 3C17.3113 3 21.7275 7.41615 21.7275 12.8637C21.7275 14.425 21.3645 15.9025 20.7179 17.2156C20.6227 17.4089 20.3889 17.4884 20.1956 17.3933C20.0023 17.2981 19.9228 17.0642 20.018 16.871C20.6129 15.6627 20.9473 14.3028 20.9473 12.8637C20.9473 7.84703 16.8804 3.78018 11.8637 3.78018Z" stroke-linecap="round" />
    <path d="M5.13848 21.0546C5.26273 21.1679 5.42628 21.2283 5.59436 21.223C5.76245 21.2176 5.92182 21.1469 6.0386 21.0259C6.81364 20.2547 7.73729 19.649 8.75349 19.2456C9.7697 18.8422 10.8573 18.6495 11.9502 18.6791C13.0407 18.6491 14.1258 18.8408 15.14 19.2426C16.1542 19.6443 17.0763 20.2478 17.8504 21.0163C17.9661 21.1395 18.126 21.2117 18.2949 21.2169C18.4639 21.2222 18.628 21.1601 18.7511 21.0444C18.8743 20.9286 18.9464 20.7687 18.9517 20.5998C18.957 20.2309 18.8949 20.2668 18.7792 20.1436C17.8849 19.2479 16.8179 18.5433 15.643 18.0725C14.4681 17.6018 13.2098 17.3747 11.9445 17.405C10.6783 17.3757 9.41944 17.6043 8.24444 18.077C7.06945 18.5496 6.00293 19.2565 5.10982 20.1544C4.99431 20.2776 4.93245 20.4416 4.93782 20.6104C4.9432 20.7792 5.01537 20.939 5.13848 21.0546Z" stroke-width="0.2" />
    <path d="M15.7654 12.1815C15.7654 11.4256 15.5413 10.6866 15.1213 10.0581C14.7013 9.42951 14.1043 8.93961 13.4059 8.65032C12.7075 8.36103 11.939 8.28534 11.1976 8.43282C10.4562 8.5803 9.77512 8.94432 9.24058 9.47886C8.70604 10.0134 8.34202 10.6944 8.19454 11.4359C8.04706 12.1773 8.12275 12.9458 8.41204 13.6442C8.70133 14.3426 9.19123 14.9396 9.81978 15.3596C10.4483 15.7795 11.1873 16.0037 11.9433 16.0037C12.9567 16.0027 13.9282 15.5997 14.6448 14.8831C15.3614 14.1665 15.7644 13.1949 15.7654 12.1815ZM9.39515 12.1815C9.39515 11.6776 9.54459 11.1849 9.82458 10.7659C10.1046 10.3469 10.5025 10.0203 10.9681 9.8274C11.4337 9.63454 11.9461 9.58407 12.4404 9.68239C12.9347 9.78071 13.3887 10.0234 13.745 10.3798C14.1014 10.7361 14.3441 11.1901 14.4424 11.6844C14.5407 12.1787 14.4903 12.6911 14.2974 13.1567C14.1045 13.6223 13.7779 14.0202 13.3589 14.3002C12.9399 14.5802 12.4472 14.7297 11.9433 14.7297C11.2675 14.7297 10.6193 14.4612 10.1415 13.9833C9.66361 13.5055 9.39515 12.8573 9.39515 12.1815Z" />
</svg>