<svg width="40" height="14" viewBox="0 0 40 14" fill="none" xmlns="http://www.w3.org/2000/svg">
<path fill-rule="evenodd" clip-rule="evenodd" d="M28.5732 9.37324C28.5809 7.23464 26.9481 6.30434 25.6404 5.56119C24.7643 5.06163 24.033 4.6474 24.0457 4.00609C24.0559 3.5203 24.4837 3.00147 25.4169 2.87211C26.5099 2.75826 27.6109 2.96652 28.6037 3.47488L29.1712 0.601396C28.2046 0.207709 27.1809 0.00405466 26.1482 0C22.9538 0 20.7053 1.83997 20.685 4.47538C20.6647 6.42406 22.2911 7.51263 23.515 8.16082C24.7745 8.82552 25.196 9.25076 25.1922 9.84528C25.1922 10.7536 24.1866 11.1527 23.2573 11.1692C21.6804 11.1953 20.7459 10.7219 20.0044 10.3476L19.9397 10.3146L19.3544 13.2816C20.1098 13.656 21.5039 13.9835 22.9475 14C26.3438 14 28.5644 12.1807 28.5758 9.36774L28.5732 9.37324ZM15.1874 0.253219L9.95144 13.7949H6.53484L3.95747 2.98634C3.80003 2.32026 3.66545 2.07805 3.18807 1.79593C2.41358 1.33904 1.12998 0.91104 0 0.644058L0.0761783 0.243586H5.57499C5.9331 0.244877 6.27905 0.384587 6.55064 0.637601C6.82223 0.890615 7.00166 1.24034 7.05666 1.62391L8.41771 9.45169L11.781 0.235328L15.1874 0.253219ZM40 13.7826H37.0113L36.6215 11.7692H32.4736L31.8007 13.7922H28.4056L33.2557 1.24408C33.3655 0.946591 33.5554 0.691814 33.8006 0.512888C34.0458 0.333962 34.3351 0.239167 34.6307 0.240834H37.3896L39.9987 13.7826H40ZM33.4068 8.98378L35.1081 3.90013L36.0781 8.99617L33.4068 8.98378ZM17.1363 13.7826L19.8089 0.240834H16.5726L13.9 13.7826H17.1363Z" fill="#0C54A8"/>
</svg>
