<svg width="16" height="16" viewBox="0 0 16 16" fill="none" xmlns="http://www.w3.org/2000/svg">
<path d="M13 3H4C3.44772 3 3 3.44772 3 4V8" stroke="#717171" stroke-width="2" stroke-miterlimit="10" stroke-linecap="round" stroke-linejoin="round"/>
<path fill-rule="evenodd" clip-rule="evenodd" d="M3.09091 4.52632H12.9091C13.5118 4.52632 14 4.99737 14 5.57895V12.9474C14 13.5289 13.5118 14 12.9091 14H3.63636C2.73255 14 2 13.2932 2 12.4211V4L3.09091 4.52632ZM11 8C10.4477 8 10 8.44772 10 9C10 9.55228 10.4477 10 11 10C11.5523 10 12 9.55228 12 9C12 8.44772 11.5523 8 11 8Z" fill="#717171"/>
</svg>
